<?xml version="1.0" encoding="UTF-8" standalone="no"?>
<!-- Created with Inkscape (http://www.inkscape.org/) -->

<svg
   xmlns:dc="http://purl.org/dc/elements/1.1/"
   xmlns:cc="http://creativecommons.org/ns#"
   xmlns:rdf="http://www.w3.org/1999/02/22-rdf-syntax-ns#"
   xmlns:svg="http://www.w3.org/2000/svg"
   xmlns="http://www.w3.org/2000/svg"
   xmlns:sodipodi="http://sodipodi.sourceforge.net/DTD/sodipodi-0.dtd"
   xmlns:inkscape="http://www.inkscape.org/namespaces/inkscape"
   width="1800"
   height="300"
   viewBox="0 0 1800 300"
   version="1.1"
   id="svg8"
   inkscape:version="0.92.3 (2405546, 2018-03-11)"
   sodipodi:docname="A.svg">
  <defs
     id="defs2" />
  <sodipodi:namedview
     id="base"
     pagecolor="#ffffff"
     bordercolor="#666666"
     borderopacity="1.0"
     inkscape:pageopacity="0.0"
     inkscape:pageshadow="2"
     inkscape:zoom="11.2"
     inkscape:cx="1726.5426"
     inkscape:cy="49.516429"
     inkscape:document-units="mm"
     inkscape:current-layer="svg8"
     showgrid="false"
     inkscape:window-width="1366"
     inkscape:window-height="705"
     inkscape:window-x="-8"
     inkscape:window-y="-8"
     inkscape:window-maximized="1" />
  <metadata
     id="metadata5">
    <rdf:RDF>
      <cc:Work
         rdf:about="">
        <dc:format>image/svg+xml</dc:format>
        <dc:type
           rdf:resource="http://purl.org/dc/dcmitype/StillImage" />
        <dc:title />
      </cc:Work>
    </rdf:RDF>
  </metadata>
  <g
     inkscape:label="Calque 1"
     inkscape:groupmode="layer"
     id="layer1" />
  <path
     style="fill:#000000;fill-opacity:1;stroke:#000000;stroke-width:2.02030516"
     d="m 172.68302,255.60165 c 0,-0.84324 1.86621,-3.51966 4.14713,-5.94759 4.7343,-5.03942 46.3605,-86.77708 46.3605,-91.03397 0,-6.00238 -88.52667,-1.98319 -102.30056,4.64454 -5.68885,2.73736 -49.359876,45.71386 -80.302885,79.0258 -6.50158,6.99931 -12.25203,12.29505 -12.77878,11.76827 -2.44146,-2.44146 6.27899,-12.31123 51.747869,-58.56801 l 31.507416,-32.05342 -13.131976,1.22153 c -7.22259,0.67184 -23.13249,2.58768 -35.355339,4.25743 -26.03164,3.55616 -27.27412,3.61697 -27.27412,1.33496 0,-0.95398 7.04582,-2.80369 15.65737,-4.11045 26.698099,-4.05131 41.460259,-6.10738 53.830345,-7.49748 12.77042,-1.4351 13.545,-1.95496 40.61891,-27.26154 6.66701,-6.2318 16.21295,-14.87334 21.2132,-19.2034 5.00026,-4.33006 9.54595,-8.38201 10.10153,-9.00435 7.7819,-8.716881 58.53276,-45.306569 69.31091,-49.970868 7.12994,-3.08552 12.95254,-0.35571 14.78108,6.929826 2.24609,8.949129 -8.65527,48.875372 -20.2896,74.310592 -2.86744,6.26889 -5.21354,12.62998 -5.21354,14.13577 0,1.8034 3.79239,3.21162 11.11167,4.12611 16.03678,2.00366 14.44216,5.96555 -1.70509,4.23633 l -12.81676,-1.37256 -18.26244,35.98746 c -24.31405,47.91263 -33.73046,64.13914 -37.67656,64.92494 -1.80416,0.35927 -3.28028,-0.0367 -3.28028,-0.87992 z m 4.04061,-103.52947 c 19.44544,-1.01785 38.82623,-1.72666 43.06844,-1.57515 7.66689,0.27383 7.74811,0.19371 13.55851,-13.37738 10.40354,-24.2991 20.24085,-51.962833 22.25517,-62.584355 4.9747,-26.231424 -5.01575,-24.153999 -47.56739,9.89123 -27.92967,22.346295 -77.78175,66.997945 -77.78175,69.667775 0,1.34059 2.17034,1.73681 5.55584,1.01426 3.05571,-0.65216 21.46574,-2.01853 40.91118,-3.03638 z"
     id="A-1"
     inkscape:connector-curvature="0" />
  <path
     style="fill:#000000;fill-opacity:1;stroke:#000000;stroke-width:2.02030516"
     d="m 266.53591,256.27151 c -1.3334,-1.3334 -2.42437,-3.72286 -2.42437,-5.30991 0,-5.91913 12.5562,-24.16707 29.24463,-42.50126 17.3701,-19.08308 19.55401,-22.49544 14.39708,-22.49544 -9.01664,0 -65.32838,37.48082 -97.75517,65.06537 -6.67293,5.67647 -10.5363,7.11585 -10.5363,3.92552 0,-1.70164 11.73536,-20.63311 34.62618,-55.85891 6.49864,-10.00051 11.82137,-16.5849 11.82828,-14.63197 0.007,1.95293 -6.86694,14.54413 -15.27521,27.98044 -8.40827,13.43631 -14.84504,24.87238 -14.30393,25.41348 0.5411,0.54111 10.82986,-6.52355 22.8639,-15.69923 43.03776,-32.81531 69.36773,-46.37037 74.36519,-38.2843 2.1113,3.41615 -6.25311,16.62351 -24.27663,38.3327 -22.22288,26.76728 -24.67152,32.44727 -13.98799,32.44727 9.70559,0 33.38108,-11.9967 69.33036,-35.13066 13.61051,-8.75859 18.73951,-10.60753 15.67627,-5.6511 -2.81391,4.553 -39.3507,27.72151 -56.61062,35.89761 -19.28436,9.13509 -32.25766,11.40441 -37.16167,6.50039 z"
     id="n-1"
     inkscape:connector-curvature="0" />
  <path
     style="fill:#000000;fill-opacity:1;stroke:#000000;stroke-width:1.42857146"
     d="m 344.61748,260.77657 c -3.22813,-1.68978 -3.55835,-2.68673 -3.43537,-10.37153 0.10924,-6.82668 1.19993,-10.6133 5.53502,-19.21631 7.20244,-14.29329 15.71826,-28.29305 30.96434,-50.90449 6.95766,-10.31889 12.6503,-19.15818 12.6503,-19.64285 0,-0.48468 -12.85715,-0.88123 -28.57143,-0.88123 -24.44445,0 -28.57143,-0.30953 -28.57143,-2.14286 0,-1.83688 4.29293,-2.14286 30.06493,-2.14286 34.85442,0 30.10933,2.03819 45.33093,-19.47128 21.28298,-30.07475 21.94636,-30.90078 23.53793,-29.30921 1.60649,1.60649 -6.9827,15.69146 -22.16032,36.33957 -3.92233,5.33606 -6.6757,10.15749 -6.1186,10.71428 0.55709,0.5568 23.45908,0.77894 50.8933,0.49366 43.11287,-0.44832 49.8804,-0.23449 49.8804,1.57609 0,3.04847 -14.43886,3.94261 -63.66693,3.94261 h -41.80727 l -4.17958,5.35714 c -5.25167,6.7313 -27.47487,41.25601 -37.34451,58.01633 -13.8274,23.48128 -16.03063,33.76938 -7.23182,33.76938 9.01612,0 32.07859,-12.16368 64.0684,-33.79117 12.97733,-8.77364 18.15373,-10.9935 16.97655,-7.28025 -1.21352,3.82786 -49.17567,34.94631 -64.36188,41.7588 -9.82534,4.40761 -17.92406,5.55685 -22.45296,3.18618 z"
     id="t-1"
     inkscape:connector-curvature="0" />
  <path
     style="fill:#000000;fill-opacity:1;stroke:#000000;stroke-width:1.42857146"
     d="m 413.35507,259.88053 c -4.70904,-4.70904 -4.98555,-5.47988 -4.15065,-11.57113 1.83255,-13.36993 17.2664,-35.02577 32.13454,-45.08924 3.64797,-2.46912 9.29751,-6.90382 12.55453,-9.85489 9.39603,-8.51339 26.08673,-11.43102 31.93528,-5.58247 3.63217,3.63217 3.82905,13.75633 0.45081,23.18185 -1.33125,3.7143 -2.03949,7.13424 -1.57385,7.59987 0.46563,0.46563 6.53009,-0.13419 13.47658,-1.33294 7.81359,-1.34838 13.13816,-1.67136 13.96258,-0.84694 2.24409,2.24409 -9.04472,5.94455 -20.57655,6.74498 l -10.73957,0.74544 -6.42857,8.52843 c -15.06525,19.98625 -33.65517,32.52217 -48.22817,32.52217 -6.99057,0 -8.27899,-0.50716 -12.81696,-5.04513 z m 28.85793,-4.57756 c 7.74136,-3.92014 25.59913,-20.34169 29.70503,-27.31599 l 2.51782,-4.27679 -7.5471,-2.194 c -7.68284,-2.23346 -15.89847,-8.7235 -17.52324,-13.84269 -0.47967,-1.51131 -1.54959,-2.74784 -2.37759,-2.74784 -3.26838,0 -23.56422,22.45981 -28.07521,31.06862 -5.84961,11.16347 -5.93622,19.89542 -0.22679,22.86496 4.79835,2.49567 14.45987,1.03527 23.52708,-3.55627 z m 38.49057,-43.8197 c 5.43812,-14.23954 4.23721,-22.27189 -3.32987,-22.27189 -2.79141,0 -4.29097,0.84941 -4.77636,2.70555 -0.43551,1.66543 -2.55908,3.10458 -5.52375,3.74348 -11.41316,2.45961 -14.90565,6.71063 -11.20071,13.63338 2.09332,3.91141 11.18985,8.35163 17.26181,8.42588 4.80666,0.0588 5.32913,-0.37171 7.56888,-6.2364 z"
     id="o-1"
     inkscape:connector-curvature="0" />
  <path
     style="fill:#000000;fill-opacity:1;stroke:#000000;stroke-width:2.02030516"
     d="m 500.53068,262.84214 c -5.85757,-6.47254 -4.49525,-19.71472 3.69434,-35.91014 11.40033,-22.54485 25.098,-40.99398 25.098,-33.80401 0,0.85322 -2.23618,4.84216 -4.9693,8.8643 -16.51804,24.30848 -26.68636,47.93464 -23.32968,54.20666 3.07532,5.74628 9.03856,6.68935 20.7347,3.27911 14.64895,-4.27118 26.726,-12.4204 43.47278,-29.33411 7.90775,-7.98657 14.86573,-13.50641 15.57623,-12.3568 0.70626,1.14276 -6.0294,9.39127 -14.96815,18.33002 -11.83479,11.83479 -19.90754,17.96278 -29.7003,22.54536 -17.18638,8.04248 -30.67948,9.62625 -35.60862,4.17961 z"
     id="i-1-b"
     inkscape:connector-curvature="0" />
  <path
     style="fill:#000000;fill-opacity:1;stroke:#000000;stroke-width:1.42857146"
     d="m 529.79216,178.12826 c -1.4709,-2.37996 1.50894,-3.59232 11.29333,-4.59473 8.32311,-0.85271 9.64286,-0.67294 9.64286,1.31348 0,1.26577 -0.80357,2.55648 -1.78571,2.86825 -4.14978,1.31727 -18.40165,1.62463 -19.15048,0.413 z"
     id="i-1-h"
     inkscape:connector-curvature="0" />
  <path
     style="fill:#000000;fill-opacity:1;stroke:#000000;stroke-width:2.02030516"
     d="m 618.54,262.85927 c -1.3334,-1.3334 -2.42437,-3.72286 -2.42437,-5.30991 0,-5.91913 12.5562,-24.16707 29.24463,-42.50126 17.3701,-19.08308 19.55401,-22.49544 14.39708,-22.49544 -9.01664,0 -65.32838,37.48082 -97.75517,65.06537 -6.67293,5.67647 -10.5363,7.11585 -10.5363,3.92552 0,-1.70164 11.73536,-20.63311 34.62618,-55.85891 6.49864,-10.00051 11.82137,-16.5849 11.82828,-14.63197 0.007,1.95293 -6.86694,14.54413 -15.27521,27.98044 -8.40827,13.43631 -14.84504,24.87238 -14.30393,25.41348 0.5411,0.54111 10.82986,-6.52355 22.8639,-15.69923 43.03776,-32.81531 69.36773,-46.37037 74.36519,-38.2843 2.1113,3.41615 -6.25311,16.62351 -24.27663,38.3327 -22.22288,26.76728 -24.67152,32.44727 -13.98799,32.44727 9.70559,0 33.38108,-11.9967 69.33036,-35.13066 13.61051,-8.75859 18.73951,-10.60753 15.67627,-5.6511 -2.81391,4.553 -39.3507,27.72151 -56.61062,35.89761 -19.28436,9.13509 -32.25766,11.40441 -37.16167,6.50039 z"
     id="n-2"
     inkscape:connector-curvature="0" />
  <path
     style="fill:#000000;fill-opacity:1;stroke:#000000;stroke-width:2.85714293"
     d="m 701.05926,262.13378 c -9.76833,-10.07782 2.00803,-41.54836 22.60143,-60.39886 9.30806,-8.52029 13.96992,-10.71429 22.76602,-10.71429 8.63371,0 11.05878,1.09727 11.05044,5 -0.0307,14.38627 -29.70419,40.71429 -45.88776,40.71429 -11.65548,0 -16.15867,17.16892 -5.93791,22.6389 10.29394,5.50915 35.12564,-4.58534 71.35441,-29.00673 24.54207,-16.54352 30.66531,-16.45622 8.55768,0.12201 -35.65008,26.73354 -74.98652,41.46402 -84.50431,31.64468 z m 20.88336,-32.81345 c 11.42815,-5.42301 33.6675,-28.68919 31.21544,-32.65671 -5.06541,-8.196 -24.77546,2.7779 -37.9574,21.13343 -5.02777,7.00104 -9.1414,13.48327 -9.1414,14.40495 0,2.91054 5.95328,1.83046 15.88336,-2.88167 z"
     id="e-1"
     inkscape:connector-curvature="0" />
  <path
     style="fill:#000000;fill-opacity:1;stroke:#000000;stroke-width:2.46034694"
     d="m 821.91008,250.25605 c 4.06516,-6.66772 22.28698,-35.83624 40.49295,-64.81894 18.20596,-28.98269 41.64917,-66.47788 52.09603,-83.32263 10.44685,-16.844761 19.99643,-30.626835 21.22125,-30.626835 3.00421,0 4.95109,-3.263054 -58.96028,98.817255 -31.0074,49.52556 -57.69651,90.50273 -59.30911,91.06037 -1.61261,0.55764 0.39401,-4.44151 4.45916,-11.10922 z"
     id="R-1-b"
     inkscape:connector-curvature="0" />
  <path
     style="fill:#000000;fill-opacity:1;stroke:#000000;stroke-width:2.46034694"
     d="m 989.90896,256.69816 c -22.43176,-28.86045 -33.05244,-40.84497 -46.98644,-53.02033 -11.41994,-9.97855 -11.6349,-10.04694 -26.92145,-8.56606 -18.66433,1.8081 -26.99152,-0.0725 -30.5087,-6.89036 -6.79009,-13.16203 11.53761,-16.29191 34.044,-5.81378 l 14.01784,6.52614 12.85565,-4.37075 c 17.97433,-6.11102 44.1001,-20.0065 58.80674,-31.27732 23.268,-17.83213 34.8248,-37.1845 34.9177,-58.471511 0.046,-10.460115 -1.0644,-13.313117 -7.9657,-20.472638 C 1015.3558,56.899868 969.99571,52.142303 921.66233,62.751153 852.28919,77.978067 812.72769,108.6964 829.10197,134.62157 c 2.30488,3.64926 2.82446,6.17668 1.26981,6.17668 -4.97706,0 -10.51978,-15.14647 -8.87371,-24.24902 5.2986,-29.30051 72.48509,-59.33906 140.18289,-62.674675 44.10444,-2.173117 70.86024,6.525609 79.73264,25.922332 7.7618,16.96847 0.6682,41.742223 -17.7378,61.948363 -13.1458,14.43156 -41.6792,32.98467 -64.64823,42.03592 -11.16198,4.39855 -20.29453,8.79738 -20.29453,9.77518 0,0.9778 3.72013,4.7215 8.26708,8.31933 13.96066,11.04671 67.20728,76.74949 62.19888,76.74949 -1.2358,0 -9.91634,-9.86715 -19.29004,-21.92701 z m -75.63367,-64.84131 c 4.15172,-0.86141 7.54868,-2.32638 7.54868,-3.25549 0,-2.90915 -15.63197,-7.70801 -25.10832,-7.70801 -7.24343,0 -8.90462,0.8588 -8.27035,4.27553 1.1717,6.31172 12.94773,9.3608 25.82999,6.68797 z"
     id="R-1-h"
     inkscape:connector-curvature="0" />
  <path
     style="fill:#000000;fill-opacity:1;stroke:#000000;stroke-width:1.42857146"
     d="m 1011.7726,257.32068 c -4.7091,-4.70904 -4.9856,-5.47988 -4.1507,-11.57113 1.8326,-13.36993 17.2664,-35.02577 32.1346,-45.08924 3.6479,-2.46912 9.2975,-6.90382 12.5545,-9.85489 9.396,-8.51339 26.0867,-11.43102 31.9353,-5.58247 3.6321,3.63217 3.829,13.75633 0.4508,23.18185 -1.3313,3.7143 -2.0395,7.13424 -1.5739,7.59987 0.4657,0.46563 6.5301,-0.13419 13.4766,-1.33294 7.8136,-1.34838 13.1382,-1.67136 13.9626,-0.84694 2.2441,2.24409 -9.0447,5.94455 -20.5766,6.74498 l -10.7395,0.74544 -6.4286,8.52843 c -15.0652,19.98625 -33.6552,32.52217 -48.2282,32.52217 -6.9905,0 -8.279,-0.50716 -12.8169,-5.04513 z m 28.8579,-4.57756 c 7.7414,-3.92014 25.5991,-20.34169 29.705,-27.31599 l 2.5179,-4.27679 -7.5471,-2.194 c -7.6829,-2.23346 -15.8985,-8.7235 -17.5233,-13.84269 -0.4797,-1.51131 -1.5496,-2.74784 -2.3776,-2.74784 -3.2684,0 -23.5642,22.45981 -28.0752,31.06862 -5.8496,11.16347 -5.9362,19.89542 -0.2268,22.86496 4.7984,2.49567 14.4599,1.03527 23.5271,-3.55627 z m 38.4906,-43.8197 c 5.4381,-14.23954 4.2372,-22.27189 -3.3299,-22.27189 -2.7914,0 -4.291,0.84941 -4.7764,2.70555 -0.4355,1.66543 -2.559,3.10458 -5.5237,3.74348 -11.4132,2.45961 -14.9057,6.71063 -11.2007,13.63338 2.0933,3.91141 11.1898,8.35163 17.2618,8.42588 4.8067,0.0588 5.3291,-0.37171 7.5689,-6.2364 z"
     id="o-2"
     inkscape:connector-curvature="0" />
  <path
     style="fill:#000000;fill-opacity:1;stroke:#000000;stroke-width:2.02030516"
     d="m 1097.6025,257.86541 c -4.0796,-2.85741 -4.5931,-4.57232 -3.7811,-12.6269 1.3126,-13.01973 10.6073,-32.0955 25.4502,-52.23223 8.289,-11.24523 8.8232,-4.94338 0.6077,7.16814 -10.9629,16.16179 -20.1526,35.03301 -21.6646,44.48871 -1.1036,6.90128 -0.6657,8.37398 3.0872,10.38248 13.1571,7.04144 47.0419,-17.46185 82.3056,-59.51805 4.6432,-5.53763 9.0302,-9.4805 9.7488,-8.76193 0.7186,0.71858 -4.0809,10.25357 -10.6654,21.18887 -15.3693,25.52464 -22.0037,42.63564 -18.0601,46.57925 2.3758,2.37581 4.5431,2.13683 14.5393,-1.60321 11.5571,-4.32407 36.4995,-20.13882 52.7717,-33.45999 10.2646,-8.403 15.8219,-9.02169 8.0356,-0.8946 -12.3754,12.91712 -45.1802,34.17668 -61.7817,40.03842 -9.7721,3.45038 -12.9471,3.18612 -17.12,-1.42494 -3.9399,-4.35356 -2.9619,-11.2878 3.7838,-26.82719 1.8089,-4.16688 2.7414,-7.57614 2.0723,-7.57614 -0.6691,0 -7.7271,5.94797 -15.6845,13.21772 -15.2304,13.91439 -34.7417,25.16807 -43.6355,25.16807 -2.9088,0 -7.413,-1.48791 -10.0093,-3.30648 z"
     id="u-1"
     inkscape:connector-curvature="0" />
  <path
     style="fill:#000000;fill-opacity:1;stroke:#000000;stroke-width:2.02030516"
     d="m 1196.5523,273.49862 c -2.761,-7.19529 13.3427,-25.94744 31.3861,-36.54784 8.2865,-4.8683 10.0834,-6.85599 9.1316,-10.10152 -6.0316,-20.56798 -5.2445,-26.84585 4.4313,-35.34124 11.0639,-9.71428 22.9409,-10.73775 22.9409,-1.97688 0,4.85427 -19.7681,26.71377 -22.584,24.9734 -1.0278,-0.6352 2.2694,-5.57893 7.3272,-10.98606 8.4409,-9.02407 11.7187,-16.06517 7.4787,-16.06517 -3.6918,0 -18.2197,12.14101 -19.5524,16.34002 -1.2918,4.07005 2.046,18.94898 5.0602,22.55676 0.699,0.83663 6.9033,-0.68617 13.7873,-3.38399 14.8313,-5.81237 46.8661,-13.96547 48.4904,-12.34119 2.1801,2.18012 -2.7066,4.48868 -14.7536,6.96978 -28.6267,5.89573 -46.6654,14.09114 -48.4001,21.9894 -1.8021,8.20482 -11.7555,19.45562 -25.4234,28.73732 -12.4995,8.48824 -17.5321,9.83683 -19.3202,5.17721 z m 16.4082,-8.58683 c 11.0508,-7.3818 23.1974,-19.88369 23.1974,-23.87596 0,-2.98602 -0.6264,-2.95274 -6.5207,0.34642 -7.7041,4.31211 -27.8245,23.6566 -27.8245,26.75151 0,3.31362 2.4038,2.61887 11.1478,-3.22197 z"
     id="s-1"
     inkscape:connector-curvature="0" />
  <path
     style="fill:#000000;fill-opacity:1;stroke:#000000;stroke-width:2.02030516"
     d="m 1258.1047,272.22357 c -2.761,-7.19529 13.3427,-25.94744 31.3861,-36.54784 8.2865,-4.8683 10.0834,-6.85599 9.1316,-10.10152 -6.0316,-20.56798 -5.2445,-26.84585 4.4313,-35.34124 11.0639,-9.71428 22.9409,-10.73775 22.9409,-1.97688 0,4.85427 -19.7681,26.71377 -22.584,24.9734 -1.0278,-0.6352 2.2694,-5.57893 7.3272,-10.98606 8.4409,-9.02407 11.7187,-16.06517 7.4787,-16.06517 -3.6918,0 -18.2197,12.14101 -19.5524,16.34002 -1.2918,4.07005 2.046,18.94898 5.0602,22.55676 0.699,0.83663 6.9033,-0.68617 13.7873,-3.38399 14.8313,-5.81237 46.8661,-13.96547 48.4904,-12.34119 2.1801,2.18012 -2.7066,4.48868 -14.7536,6.96978 -28.6267,5.89573 -46.6654,14.09114 -48.4001,21.9894 -1.8021,8.20482 -11.7555,19.45562 -25.4234,28.73732 -12.4995,8.48824 -17.5321,9.83683 -19.3202,5.17721 z m 16.4082,-8.58683 c 11.0508,-7.3818 23.1974,-19.88369 23.1974,-23.87596 0,-2.98602 -0.6264,-2.95274 -6.5207,0.34642 -7.7041,4.31211 -27.8245,23.6566 -27.8245,26.75151 0,3.31362 2.4038,2.61887 11.1478,-3.22197 z"
     id="s-2"
     inkscape:connector-curvature="0" />
  <path
     style="fill:#000000;fill-opacity:1;stroke:#000000;stroke-width:2.02030516"
     d="m 1344.4161,270.36132 c -5.8576,-6.47254 -4.4952,-19.71472 3.6943,-35.91014 11.4004,-22.54485 25.0981,-40.99398 25.0981,-33.80401 0,0.85322 -2.2363,4.84216 -4.9694,8.8643 -16.518,24.30848 -26.6863,47.93464 -23.3296,54.20666 3.0753,5.74628 9.0385,6.68935 20.7347,3.27911 14.649,-4.27118 26.726,-12.4204 43.4728,-29.33411 7.9077,-7.98657 14.8657,-13.50641 15.5762,-12.3568 0.7063,1.14276 -6.0294,9.39127 -14.9681,18.33002 -11.8348,11.83479 -19.9076,17.96278 -29.7003,22.54536 -17.1865,8.04248 -30.6796,9.62625 -35.6087,4.17961 z"
     id="i-2-b"
     inkscape:connector-curvature="0" />
  <path
     style="fill:#000000;fill-opacity:1;stroke:#000000;stroke-width:1.25648654"
     d="m 1367.1366,181.2721 c -1.4709,-1.84111 1.509,-2.77899 11.2933,-3.55444 8.3232,-0.65965 9.6429,-0.52058 9.6429,1.0161 0,0.97918 -0.8036,1.97767 -1.7857,2.21885 -4.1498,1.01903 -18.4017,1.2568 -19.1505,0.31949 z"
     id="i-2-h"
     inkscape:connector-curvature="0" />
  <path
     style="fill:#000000;fill-opacity:1;stroke:#000000;stroke-width:2.02030516"
     d="m 1466.3396,273.02199 c -4.6919,-5.18452 -4.2139,-9.24498 2.6867,-22.8245 3.3166,-6.52667 5.1685,-11.86668 4.1154,-11.86668 -1.0532,0 -6.7215,1.91529 -12.5962,4.25619 -18.6408,7.42773 -29.7979,10.11716 -39.3598,9.48765 -17.272,-1.13713 -16.9497,-11.33749 0.9336,-29.54266 26.0161,-26.48449 63.1462,-34.30474 73.2489,-15.42754 4.1193,7.69701 0.8843,8.08909 -5.7234,0.6937 -5.48,-6.13318 -6.8792,-6.65331 -17.2445,-6.41063 -15.2874,0.35793 -31.8168,9.35576 -47.8392,26.04141 -15.3356,15.97044 -15.4678,20.10782 -0.6307,19.73333 10.4245,-0.26312 32.1824,-6.47866 45.1266,-12.8912 10.3863,-5.14537 16.1624,-6.64525 16.1624,-4.19684 0,1.16447 -3.0363,6.90784 -6.7473,12.76305 -5.4526,8.60305 -11.4354,21.69227 -11.4354,25.01836 0,0.35068 1.6736,1.53328 3.7191,2.62801 9.6177,5.14724 53.746,-16.97803 72.9635,-36.58287 4.2791,-4.36532 8.319,-7.06509 8.9776,-5.99947 4.1504,6.71542 -40.7912,38.53074 -64.653,45.76961 -13.0278,3.95219 -17.6658,3.81353 -21.7043,-0.64892 z"
     id="a-1"
     inkscape:connector-curvature="0" />
  <path
     style="fill:#000000;fill-opacity:1;stroke:#000000;stroke-width:2.02030516"
     d="m 1523.0662,275.94129 c -2.761,-7.19529 13.3427,-25.94744 31.3861,-36.54784 8.2865,-4.8683 10.0834,-6.85599 9.1316,-10.10152 -6.0316,-20.56798 -5.2445,-26.84585 4.4313,-35.34124 11.0639,-9.71428 22.9409,-10.73775 22.9409,-1.97688 0,4.85427 -40.6025,44.51771 -43.4184,41.26211 -2.6693,-2.02416 23.1038,-21.86764 28.1616,-27.27477 8.4409,-9.02407 11.7187,-16.06517 7.4787,-16.06517 -3.6918,0 -18.2197,12.14101 -19.5524,16.34002 -1.2918,4.07005 2.046,18.94898 5.0602,22.55676 0.699,0.83663 6.9033,-0.68617 13.7873,-3.38399 14.8313,-5.81237 46.8661,-13.96547 48.4904,-12.34119 2.1801,2.18012 -2.7066,4.48868 -14.7536,6.96978 -28.6267,5.89573 -46.6654,14.09114 -48.4001,21.9894 -1.8021,8.20482 -11.7555,19.45562 -25.4234,28.73732 -12.4995,8.48824 -17.5321,9.83683 -19.3202,5.17721 z m 16.4082,-8.58683 c 11.0508,-7.3818 23.1974,-19.88369 23.1974,-23.87596 0,-2.98602 -0.6264,-2.95274 -6.5207,0.34642 -7.7041,4.31211 -27.8245,23.6566 -27.8245,26.75151 0,3.31362 2.4038,2.61887 11.1478,-3.22197 z"
     id="s-3"
     inkscape:connector-curvature="0"
     sodipodi:nodetypes="ccccsccsccccscsccscsc" />
  <path
     style="fill:#000000;fill-opacity:1;stroke:#000000;stroke-width:2.02030516"
     d="m 1583.819,274.36643 c -2.761,-7.19529 13.3427,-25.94744 31.3861,-36.54784 8.2865,-4.8683 10.0834,-6.85599 9.1316,-10.10152 -6.0316,-20.56798 -5.2445,-26.84585 4.4313,-35.34124 11.0639,-9.71428 22.9409,-10.73775 22.9409,-1.97688 0,4.85427 -19.7681,26.71377 -22.584,24.9734 -1.0278,-0.6352 2.2694,-5.57893 7.3272,-10.98606 8.4409,-9.02407 11.7187,-16.06517 7.4787,-16.06517 -3.6918,0 -18.2197,12.14101 -19.5524,16.34002 -1.2918,4.07005 2.046,18.94898 5.0602,22.55676 0.699,0.83663 6.9033,-0.68617 13.7873,-3.38399 14.8313,-5.81237 46.8661,-13.96547 48.4904,-12.34119 2.1801,2.18012 -2.7066,4.48868 -14.7536,6.96978 -28.6267,5.89573 -46.6654,14.09114 -48.4001,21.9894 -1.8021,8.20482 -11.7555,19.45562 -25.4234,28.73732 -12.4995,8.48824 -17.5321,9.83683 -19.3202,5.17721 z m 16.4082,-8.58683 c 11.0508,-7.3818 23.1974,-19.88369 23.1974,-23.87596 0,-2.98602 -0.6264,-2.95274 -6.5207,0.34642 -7.7041,4.31211 -27.8245,23.6566 -27.8245,26.75151 0,3.31362 2.4038,2.61887 11.1478,-3.22197 z"
     id="s-4"
     inkscape:connector-curvature="0" />
  <path
     style="fill:#000000;fill-opacity:1;stroke:#000000;stroke-width:2.85714293"
     d="m 1666.9937,272.7626 c -9.7683,-10.07782 2.008,-41.54836 22.6014,-60.39886 9.3081,-8.52029 13.9699,-10.71429 22.766,-10.71429 8.6337,0 11.0588,1.09727 11.0505,5 -0.031,14.38627 -29.7042,40.71429 -45.8878,40.71429 -11.6555,0 -16.1587,17.16892 -5.9379,22.6389 10.2939,5.50915 35.1256,-4.58534 71.3544,-29.00673 24.5421,-16.54352 30.6653,-16.45622 8.5577,0.12201 -35.6501,26.73354 -74.9865,41.46402 -84.5043,31.64468 z m 20.8833,-32.81345 c 11.4282,-5.42301 33.6675,-28.68919 31.2155,-32.65671 -5.0654,-8.196 -24.7755,2.7779 -37.9574,21.13343 -5.0278,7.00104 -9.1414,13.48327 -9.1414,14.40495 0,2.91054 5.9533,1.83046 15.8833,-2.88167 z"
     id="e-2"
     inkscape:connector-curvature="0" />
  <path
     style="fill:none;stroke:#000000;stroke-width:1px;stroke-linecap:butt;stroke-linejoin:miter;stroke-opacity:1"
     d="m 28.031733,253.40671 9.975257,-11.49048 7.323606,-8.20749 13.258252,-14.26841 16.541248,-16.28871 8.712565,-9.34391 29.925769,-29.67323 20.70813,-18.94036 29.42069,-27.40039 35.86042,-31.188456 26.5165,-19.697974 14.26841,-9.091373 7.44987,-2.904189 4.67196,-0.757614 2.52538,0.757614 3.28299,2.904189 1.01016,6.313453 -1.51523,10.480333 -5.05077,19.571706 -5.17703,15.404821 -6.18718,16.54125 -5.3033,12.2481 -9.97526,20.96067 -9.34391,19.1929 -15.27856,31.18846 -12.50064,24.4962 -8.20749,14.01586 -5.42956,6.56599 -2.77792,4.04061"
     id="path-A-1-1"
     inkscape:connector-curvature="0" />
  <path
     style="fill:none;stroke:#000000;stroke-width:1px;stroke-linecap:butt;stroke-linejoin:miter;stroke-opacity:1"
     d="m 33.839286,171.16071 12.678571,-1.78571 19.910715,-3.21429 26.428571,-3.92857 22.410717,-2.05357 23.21428,-2.58928 14.82143,-1.78572 14.28572,-1.875 25.08928,-0.35714 25.26786,-1.16072 10.625,0.35715 10.98214,0.26785 10.26786,1.78572 7.05357,1.69643 2.41071,0.89285"
     id="path-A-1-2"
     inkscape:connector-curvature="0" />
  <path
     style="fill:none;stroke:#000000;stroke-width:1px;stroke-linecap:butt;stroke-linejoin:miter;stroke-opacity:1"
     d="m 245.89286,183.48214 -10,16.16072 -21.60715,34.28571 -10.625,18.125 v 1.16072 l 21.25,-17.76786 L 250,216.51786 l 30.44643,-20.80357 12.85714,-6.78572 7.32143,-3.48214 3.75,-0.98214 5.26786,-0.625 1.16071,0.35714 1.07143,0.625 0.44643,1.16071 -0.17857,1.33929 -1.07143,2.23214 -15.17857,20.17857 -9.55358,10.89286 -16.51785,22.32143 -0.71429,1.69643 -1.07143,2.94643 -0.53571,2.23214 v 2.14286 l 0.35714,2.14285 0.89286,1.07143 1.60714,1.25 3.83929,0.89286 8.39285,-1.51786 13.83929,-5.26786 33.75,-18.66071 21.07143,-13.83929 9.82143,-6.69642 1.51785,-0.89286"
     id="path-n-1"
     inkscape:connector-curvature="0" />
  <path
     style="fill:none;stroke:#000000;stroke-width:1px;stroke-linecap:butt;stroke-linejoin:miter;stroke-opacity:1"
     d="m 350.84821,216.29464 9.91072,-5.89285 13.34821,-19.33036 L 393.92857,160 l 2.80884,-2.99972 12.87944,-18.30901 14.89975,-21.71828 5.87152,-8.52317 0.69448,-0.88388 -28.15801,40.91118 -16.85692,24.11739 -13.13198,20.20305 -16.28871,25.82203 -8.52316,15.27855 -4.35628,11.80616 -0.94702,6.88167 0.31567,2.84105 0.94702,2.77792 1.70463,0.75761 2.08344,0.44194 3.03046,0.12627 2.58851,-0.31567 7.63928,-1.6415 18.24588,-10.03839 21.97082,-12.75317 14.14214,-9.65959 10.85914,-7.3236 5.11389,-2.71479 0.63135,-0.69448"
     id="path-t-1-1"
     inkscape:connector-curvature="0"
     sodipodi:nodetypes="ccccccccccccccccccccccccccccc" />
  <path
     style="fill:none;stroke:#000000;stroke-width:1px;stroke-linecap:butt;stroke-linejoin:miter;stroke-opacity:1"
     d="m 332.46645,157.56849 17.80394,-0.37881 26.76905,0.50508 12.24809,-0.25254 15.40483,-0.3788 13.38452,-0.25254 28.28427,0.12627 h 19.82425 l 21.71828,-0.50508 9.72271,-0.12627 6.81853,-0.25254 h 1.13643"
     id="path-t-1-2"
     inkscape:connector-curvature="0" />
  <path
     style="fill:none;stroke:#000000;stroke-width:1px;stroke-linecap:butt;stroke-linejoin:miter;stroke-opacity:1"
     d="m 419.28571,222.5 10.75517,-7.41595 3.97747,-3.25143 9.10665,-8.26119 8.39285,-5.625 6.07143,-2.94643 7.94643,-2.41071 3.83929,-0.44643 -11.875,3.21428 -14.46429,8.39286 -14.10714,13.39286 -8.66071,10.98214 -5.71429,9.82143 -2.94643,9.01786 -0.26786,3.75 -0.0893,2.67857 0.98214,2.05357 0.69928,1.14858 1.13642,1.51523 1.8309,1.60993 1.42053,1.01015 2.62008,1.01015 3.50397,0.91545 4.07218,-0.0947 4.00235,-0.41836 6.96429,-2.41072 4.55357,-2.14285 8.83929,-5.625 6.96428,-6.16072 9.19643,-9.19643 7.85714,-10.53571 5.35715,-7.67857 2.58928,-6.42857 3.03572,-13.66072 -0.35715,-2.76786 -0.98214,-4.10714 -1.07143,-2.23214 -1.51785,-0.98214 -3.66072,-0.98215 -4.375,-0.71428 -5.98214,0.89285 -4.375,1.96429 -6.16072,2.76786 -3.03571,2.85714 -4.375,5.80357 -0.35714,2.14286 0.44643,2.41071 0.80357,1.69643 1.51785,2.94643 1.33929,1.60714 2.05357,1.96429 3.125,2.32143 3.92857,2.05357 4.73215,1.33928 5.35714,1.42858 6.42857,0.53571 h 6.25 l 5.08929,-0.625 7.58928,-0.98214 6.33929,-1.16072 4.10714,-0.98214 3.92857,-0.98214"
     id="path-o-1"
     inkscape:connector-curvature="0" />
  <path
     style="fill:none;stroke:#000000;stroke-width:1px;stroke-linecap:butt;stroke-linejoin:miter;stroke-opacity:1"
     d="m 505.35714,217.94643 5.80357,-2.58929 8.30357,-11.60714 5.53572,-7.85714 2.14285,-2.85715 -8.66071,12.5 -7.32143,11.60715 -3.66071,8.39285 -5.26786,11.07143 -1.60714,4.73215 -1.25,4.46428 -0.80357,5.26786 0.26785,3.83928 0.98215,4.01786 1.69642,2.23214 1.42858,0.89286 2.94642,1.07143 3.39286,0.35714 4.19643,-0.17857 5.35714,-0.80357 8.03572,-2.05357 6.51785,-3.21429 9.46429,-4.64285 5,-3.57143 11.16071,-9.375 8.30358,-7.94643 6.875,-7.85714 6.69642,-6.42858 1.07143,-1.42857"
     id="path-i-1-b"
     inkscape:connector-curvature="0" />
  <path
     style="fill:none;stroke:#000000;stroke-width:1px;stroke-linecap:butt;stroke-linejoin:miter;stroke-opacity:1"
     d="m 528.83928,177.20982 3.0134,-0.22321 5.1116,-0.5134 7.43304,-0.7366 5.73661,-0.53572 0.98214,-0.22321 0.66964,-0.13393"
     id="path-i-1-h"
     inkscape:connector-curvature="0" />
  <path
     style="fill:none;stroke:#000000;stroke-width:1px;stroke-linecap:butt;stroke-linejoin:miter;stroke-opacity:1"
     d="m 569.91071,226.07143 8.125,-6.51786 3.92857,-3.57143 2.65625,-4.64285 6.95005,-11.7232 5.55584,-8.08122 -6.9448,11.23795 -14.01587,22.98097 -14.2684,22.47589 -6.81853,11.23795 13.00571,-10.2278 9.84899,-7.95495 26.26397,-19.82424 16.79378,-11.49049 15.15229,-9.72271 14.89975,-7.82869 2.74635,-0.66291 2.30441,-0.88388 2.11501,-0.12627 2.30441,-0.0631 1.60993,0.47351 0.91545,0.44195 0.56821,0.75761 0.0631,1.07329 -0.28411,1.10485 -0.78918,2.11501 -4.48255,7.10263 -6.62913,8.04966 -10.44876,12.5322 -8.61787,10.85914 -9.84898,13.38452 -3.55179,7.49451 v 3.30357 l 0.89286,2.05357 1.875,1.33929 2.32143,0.53571 h 3.75 l 6.25,-1.51786 8.21429,-2.5 15.17857,-6.60714 13.03571,-7.32143 14.82143,-8.83928 11.33929,-7.32143 12.41071,-8.125 5.44643,-3.75"
     id="path-n-2"
     inkscape:connector-curvature="0" />
  <path
     style="fill:none;stroke:#000000;stroke-width:1px;stroke-linecap:butt;stroke-linejoin:miter;stroke-opacity:1"
     d="m 703.57142,224.46429 4.28572,-2.67858 -2.5,7.14286 -1.96429,5.53572 1.96429,1.78571 2.19158,-0.55252 6.43972,-1.16799 6.21875,-2.14658 4.57726,-1.86246 7.54457,-4.98763 5.77681,-4.86136 8.01809,-8.11279 4.07218,-5.05076 4.45098,-6.28189 0.53665,-1.35739 0.25253,-1.76777 -0.0631,-1.45209 -0.66291,-1.79934 -1.89404,-1.51522 -1.57836,-0.82075 -2.93576,-0.44195 -5.52427,0.44195 -4.16688,0.94701 -7.0395,4.04061 -5.33487,4.57726 -5.1139,4.70352 -5.6821,7.16577 -4.41942,5.74524 -5.1139,8.17593 -4.04061,9.09137 -2.55695,8.681 -0.63134,4.54568 0.41037,3.78807 1.19956,3.21987 1.79933,2.71478 1.38896,0.82075 2.93576,1.35739 3.3777,0.59978 6.12405,-0.0631 8.49159,-1.92561 7.2289,-2.46224 8.08122,-2.87263 7.00794,-4.04061 18.81201,-10.07327 7.85714,-5 19.10715,-13.39286 7.14285,-5 1.42857,-1.25"
     id="path-e-1"
     inkscape:connector-curvature="0" />
  <path
     style="fill:none;stroke:#000000;stroke-width:1px;stroke-linecap:butt;stroke-linejoin:miter;stroke-opacity:1"
     d="M 816.6947,262.0553 836.87328,229.91244 936.66395,70.695372"
     id="path-R-1-b"
     inkscape:connector-curvature="0" />
  <path
     style="fill:none;stroke:#000000;stroke-width:1px;stroke-linecap:butt;stroke-linejoin:miter;stroke-opacity:1"
     d="m 831.35555,141.65859 -3.78808,-5.42957 -3.15672,-6.50286 -1.38896,-7.70241 0.88388,-6.31346 2.84106,-7.76554 5.6821,-6.7554 7.13421,-6.692258 12.31123,-8.523163 18.05648,-9.343911 17.80394,-6.944798 20.45558,-5.682108 23.54919,-5.42957 23.99112,-2.77792 23.61231,-0.568211 20.45557,2.08344 15.84684,3.914341 15.468,8.586297 7.1973,8.144355 2.2097,4.73509 1.894,6.818529 0.063,5.745243 -0.2526,5.682104 -1.2627,5.61898 -2.3991,8.01808 -3.0936,7.82868 -5.2401,8.20749 -4.5457,5.87152 -7.5762,8.46002 -7.1973,5.80838 -7.7655,5.61897 -7.44994,6.18719 -14.71037,8.27062 -22.91783,11.42735 -16.03618,5.80838 -5.99778,2.71479 -11.36421,2.27284 -20.13992,1.19955 -8.7757,-0.44194 -4.73509,-2.08344 -2.27284,-2.08344 -1.51523,-2.08344 -0.50508,-2.14657 0.0631,-2.58852 0.56821,-2.96732 1.13642,-0.94702 3.15673,-0.56821 4.98762,0.12627 9.09138,1.07329 10.10152,3.15672 9.21765,4.41942 5.87151,4.16688 9.84898,7.95495 4.10375,3.66181 5.55584,4.79822 8.83883,9.15451 10.48034,11.93242 13.00571,15.59423 14.01594,18.18275 10.79604,13.76333 2.7148,3.91434"
     id="path-R-1-h"
     inkscape:connector-curvature="0" />
  <path
     style="fill:none;stroke:#000000;stroke-width:1px;stroke-linecap:butt;stroke-linejoin:miter;stroke-opacity:1"
     d="m 1070.5357,190.53571 -13.9286,3.75 -15.3571,7.85715 -13.2143,12.14285 -8.0357,10.17858 -5,8.39285 -4.2857,9.64286 -0.3572,5.89286 0.5358,4.28571 2.7321,3.72703 3.7249,2.65165 1.894,0.59978 3.1568,0.22097 5.4611,-0.2841 8.3337,-2.77792 5.6822,-2.58852 5.8399,-3.18829 5.4927,-3.97748 6.1241,-5.52427 8.8704,-9.56488 6.6922,-8.4916 5.0823,-10.22779 3.725,-9.84899 1.0733,-7.51301 0.1578,-2.99889 -0.3472,-2.27284 -1.1049,-2.20971 -2.3675,-2.39911 -2.9042,-1.16799 -3.1883,-0.44194 -4.9245,0.31567 -7.4183,1.60993 -1.7994,1.07329 -3.5986,2.49381 -3.6303,3.25143 -1.3889,2.46225 -1.0733,2.36754 -0.5998,2.02031 -0.5366,2.68322 0.3788,2.80948 1.8625,2.90419 3.7249,2.96732 3.0936,2.62009 5.7452,2.115 7.3868,2.05188 7.3236,0.50507 7.3551,-0.2841 9.4387,-1.19956 5.9977,-1.04172 5.2718,-1.16799 3.8196,-0.85231"
     id="path-o-2"
     inkscape:connector-curvature="0" />
  <path
     style="fill:none;stroke:#000000;stroke-width:1px;stroke-linecap:butt;stroke-linejoin:miter;stroke-opacity:1"
     d="m 1103.276,215.58913 3.9775,-1.19956 4.23,-6.06091 5.2401,-8.3969 4.5457,-7.07106 3.1568,-4.73509 -3.4724,5.42956 -5.4296,8.3969 -7.3236,11.42735 -5.4927,11.23795 -5.1139,12.6269 -1.1996,5.49271 -0.5682,5.68211 -0.3157,3.21986 0.1263,1.45209 0.3788,0.56821 0.8208,1.32583 1.5783,1.57836 3.2199,1.19956 3.9143,0.88388 4.5457,-0.44194 8.6494,-2.96732 12.3113,-6.37659 10.0384,-7.26047 14.5841,-12.94258 12.3743,-11.49049 10.9223,-11.67989 9.3439,-12.50064 4.4194,-6.06091 -10.1646,14.71035 -5.2402,9.09137 -6.8185,12.94258 -3.5356,7.51301 -3.5986,8.39689 -2.2097,8.7757 0.3156,4.67196 1.0102,2.84105 0.6945,0.75761 1.6415,1.07329 1.6415,0.44194 3.0935,0.25254 5.9978,-1.6415 12.0587,-4.86136 16.7307,-9.40704 8.3337,-5.24017 10.796,-7.76554 9.4702,-7.44988 4.8614,-4.48255 3.9775,-3.72494 2.3359,-1.89404"
     id="path-u-1"
     inkscape:connector-curvature="0" />
  <path
     style="fill:none;stroke:#000000;stroke-width:1px;stroke-linecap:butt;stroke-linejoin:miter;stroke-opacity:1"
     d="m 1241.7932,213.82136 7.0079,-6.75539 4.1669,-3.91435 5.0192,-6.78696 1.8624,-2.99889 0.8839,-1.8309 0.3473,-1.86247 0.063,-0.91545 -0.1578,-0.82075 -0.095,-0.50507 -0.8839,-1.07329 -0.9786,-0.66291 -2.0519,-0.44195 -2.6201,0.41038 -5.903,3.25143 -4.7351,3.37769 -4.0722,3.69337 -1.5152,1.83091 -1.0733,1.7362 -0.8839,1.98873 -0.8208,2.58852 -0.2841,3.09359 0.221,4.32472 1.1049,5.87151 1.2626,4.60882 1.7619,6.63186 -0.2233,5.98215 -0.2232,4.91071 -1.2053,4.19643 -1.25,1.96429 -2.6786,3.21428 -3.75,5 -3.8839,3.61607 -7.4554,6.20536 -10.1786,6.74107 -2.366,1.60714 -2.4554,0.9375 h -1.1607 l -1.3839,-0.17857 -0.7143,-0.53571 -0.5804,-0.26786 -0.625,-0.58036 -0.3571,-0.98214 -0.2679,-1.33928 2.3661,-4.55358 6.9196,-8.61607 9.6875,-9.24107 9.1072,-6.74107 10.0446,-5.26786 10.2232,-5.75893 10.9822,-5.13392 13.5268,-3.97322 10.4464,-3.125 12.6786,-2.99107 10.8035,-2.00893"
     id="path-s-1"
     inkscape:connector-curvature="0" />
  <path
     style="fill:none;stroke:#000000;stroke-width:1px;stroke-linecap:butt;stroke-linejoin:miter;stroke-opacity:1"
     d="m 1302.9074,212.05359 3.062,-1.8309 5.5874,-5.77681 4.672,-4.76666 4.9876,-6.25031 0.7576,-2.27285 0.7892,-3.12516 0.032,-1.8309 -0.442,-0.75761 -0.5682,-0.41038 -1.168,-0.3788 -0.726,-0.28411 -1.4521,-0.28411 -2.9042,-0.0316 -4.1669,2.52538 -6.6607,5.24017 -4.23,4.16687 -2.9673,4.79823 -0.6314,2.27284 -0.031,5.1139 1.3889,8.52316 1.8941,6.78696 1.2311,3.88278 v 5.3033 l -1.5152,6.47129 -2.2413,5.80838 -2.7464,3.5671 -7.1342,7.73398 -8.1443,6.43972 -9.5649,6.62913 -2.3044,1.19955 -2.2413,0.53665 -2.2728,0.22097 -1.2943,-0.15784 -0.7892,-0.59978 -0.6313,-0.78918 v -0.91545 l 0.2525,-1.29426 0.7261,-2.05187 1.0733,-2.30441 7.5761,-9.50175 11.9324,-10.54347 10.5435,-7.29203 14.6156,-7.48145 11.1433,-4.76665 11.2064,-3.78808 14.8997,-4.00904 9.9121,-2.39911 10.4172,-2.87262 2.6201,-0.72605"
     id="path-s-2"
     inkscape:connector-curvature="0" />
  <path
     style="fill:none;stroke:#000000;stroke-width:1px;stroke-linecap:butt;stroke-linejoin:miter;stroke-opacity:1"
     d="m 1358.8446,211.99046 5.1139,-0.88388 3.4724,-4.9245 4.4825,-6.37659 1.0733,-1.45209 -11.2379,16.16244 -11.5536,20.77126 -5.3665,12.50064 -1.7046,7.32361 -0.947,6.56599 0.8207,2.58851 1.4521,3.34613 0.5051,0.88389 1.2627,0.94702 0.7576,0.44194 0.7576,0.3788 1.894,0.69448 2.0203,0.25254 2.4623,0.18941 4.1669,-0.31568 6.3766,-1.64149 4.5456,-1.32583 17.0464,-7.38674 12.1218,-9.78585 14.3947,-13.7002 12.2481,-12.50064 0.5682,-0.50507"
     id="path-i-2-b"
     inkscape:connector-curvature="0" />
  <path
     style="fill:none;stroke:#000000;stroke-width:1px;stroke-linecap:butt;stroke-linejoin:miter;stroke-opacity:1"
     d="m 1366.4955,180.58036 9.8215,-0.75893 12.3884,-0.98215"
     id="path-i-2-h"
     inkscape:connector-curvature="0" />
  <path
     style="fill:none;stroke:#000000;stroke-width:1px;stroke-linecap:butt;stroke-linejoin:miter;stroke-opacity:1"
     d="m 1410.3571,237.85714 5.1823,-4.02213 8.1444,-9.72272 11.3642,-10.35406 14.1421,-8.71257 6.1241,-2.46225 10.9222,-2.65165 8.9651,-0.3788 6.5029,0.56821 4.9876,2.20971 4.6088,4.48255 3.8512,4.54568 1.1365,1.57837 -5.3033,-7.32361 -3.5987,-3.78807 -5.1139,-2.33598 -6.8185,-0.63134 -9.0283,0.25253 -11.4905,3.0936 -5.3664,2.46224 -7.1342,4.54569 -7.513,4.67196 -10.9223,9.84898 -8.46,10.29093 -3.7881,6.06092 -0.5682,1.70463 -0.1894,1.95717 v 1.13642 l 0.2525,1.4521 0.6314,0.69448 1.0101,0.75761 1.8309,0.88388 2.0204,0.63135 6.0609,0.63134 6.2503,-0.25253 7.9549,-1.83091 9.5965,-2.71478 5.9978,-2.02031 14.1421,-5.05076 9.6596,-3.97747 3.3461,-1.32583 0.6314,0.12627 -0.442,0.94702 -7.513,14.33154 -2.1466,4.48255 -2.7147,6.31345 -1.5784,3.85121 -0.8208,2.33598 -0.1894,2.58851 1.1365,2.58852 1.9571,1.89403 1.389,0.50508 3.0304,0.82075 4.5457,0.12627 9.4702,-1.95717 16.6675,-6.9448 20.7082,-12.4375 18.4984,-12.94258 10.9222,-12.18497"
     id="path-a-1"
     inkscape:connector-curvature="0" />
  <path
     style="fill:none;stroke:#000000;stroke-width:1px;stroke-linecap:butt;stroke-linejoin:miter;stroke-opacity:1"
     d="m 1549.1321,231.87784 10.1646,-9.09138 11.9956,-10.66973 8.7126,-8.64943 5.4295,-6.56599 2.0835,-3.15673 0.3788,-1.76777 0.063,-1.32582 -0.5682,-1.51523 -0.8208,-0.75762 -0.6944,-0.31567 -0.6314,-0.12627 -1.3258,-0.12627 -1.7678,-0.0631 -5.4927,2.14657 -5.7452,3.72494 -6.1872,6.81853 -2.6516,4.29315 -0.5051,2.27284 0.6945,10.79601 1.7677,5.87151 1.9572,5.74524 -0.442,11.67989 -0.3788,2.52538 -1.5783,3.72494 -3.1567,4.41942 -5.4928,6.43972 -9.0913,7.38674 -9.0914,6.37659 -5.4296,2.39911 -1.3258,0.50508 -1.1995,0.31567 -0.7577,-0.0631 -1.2627,-0.31567 -0.6313,-0.88388 -0.5682,-1.19956 0.1894,-1.89403 1.894,-3.66181 4.8614,-6.9448 6.8185,-6.81853 8.7126,-6.88166 11.4905,-7.26047 8.7125,-5.87151 12.8795,-5.68211 18.309,-5.74524 9.407,-2.58852 10.6698,-2.27284 11.1117,-3.34613 0.6313,-0.18941"
     id="path-s-3"
     inkscape:connector-curvature="0" />
  <path
     style="fill:none;stroke:#000000;stroke-width:1px;stroke-linecap:butt;stroke-linejoin:miter;stroke-opacity:1"
     d="m 1629.9443,214.38957 5.3664,-5.93464 5.9978,-5.87152 4.4194,-5.17703 1.7046,-3.91434 1.0102,-3.03046 -0.063,-1.19955 -0.3788,-1.19956 -0.5683,-0.82075 -1.2627,-0.82075 -1.0732,-0.31567 -1.4521,-0.1894 -1.8309,0.3788 -3.5356,1.19956 -5.0507,3.91434 -5.0508,4.10375 -3.3461,3.21986 -1.7678,4.10374 -0.5682,4.48255 0.6945,6.9448 2.5254,11.36422 0.947,6.25032 -0.947,8.7757 -0.6945,3.40926 -2.5254,4.54569 -5.9346,6.69226 -9.849,8.90197 -8.7126,5.99778 -5.4927,3.40926 -1.9572,0.25254 -3.283,-0.63134 -0.8839,-1.13642 -0.1894,-2.02031 2.7148,-6.31345 12.2481,-13.38452 14.2053,-10.10153 11.4905,-6.50286 14.6472,-7.1342 23.486,-7.76555 17.7408,-4.23001 10.1647,-2.65165"
     id="path-s-4"
     inkscape:connector-curvature="0" />
  <path
     style="fill:none;stroke:#000000;stroke-width:1px;stroke-linecap:butt;stroke-linejoin:miter;stroke-opacity:1"
     d="m 1682.0536,214.91071 h 2.6786 l 0.8035,0.89286 0.3572,1.33929 -0.3572,1.875 -2.7678,3.48214 -7.7679,10.98214 -3.8393,5.53572 -1.1607,2.76785 v 1.25 l 0.3572,1.33929 1.0714,1.07143 1.1607,0.53571 5,-0.0893 8.125,-2.23215 6.4286,-3.30357 9.6428,-7.67857 12.0536,-11.42857 3.4821,-4.82143 3.3929,-5.44643 0.625,-2.85714 -0.2679,-1.51786 -0.625,-1.78571 -0.8928,-0.625 -1.4286,-0.71429 -2.5893,-0.44643 -3.4821,0.0893 -5.3572,0.625 -7.8571,3.21429 -5.9498,5.02617 -4.5859,4.79525 -6.9643,7.41072 -6.1607,9.01786 -3.8393,5.80357 -1.3393,2.85714 -2.8571,6.875 -1.875,8.57143 -0.5357,3.03571 v 1.78572 l 0.089,2.67857 0.5358,2.41071 1.6071,2.05357 1.7857,1.60715 1.7857,1.69643 3.8393,1.16071 6.1607,-0.53571 4.375,-0.80358 9.1965,-2.41071 6.9642,-2.85714 10.0893,-3.83929 13.2143,-6.96428 10.9822,-6.875 9.7321,-7.14286 13.0357,-8.83929 7.3214,-5.44643 0.5358,-0.71428"
     id="path-e-2"
     inkscape:connector-curvature="0" />
</svg>
