<?xml version="1.0" encoding="UTF-8" standalone="no"?>
<!-- Created with Inkscape (http://www.inkscape.org/) -->

<svg
   xmlns:dc="http://purl.org/dc/elements/1.1/"
   xmlns:cc="http://creativecommons.org/ns#"
   xmlns:rdf="http://www.w3.org/1999/02/22-rdf-syntax-ns#"
   xmlns:svg="http://www.w3.org/2000/svg"
   xmlns="http://www.w3.org/2000/svg"
   xmlns:sodipodi="http://sodipodi.sourceforge.net/DTD/sodipodi-0.dtd"
   xmlns:inkscape="http://www.inkscape.org/namespaces/inkscape"
   width="900"
   height="300"
   viewBox="0 0 600 300"
   version="1.1"
   id="svg8"
   inkscape:version="0.92.3 (2405546, 2018-03-11)"
   sodipodi:docname="G.svg">
  <defs
     id="defs2" />
  <sodipodi:namedview
     id="base"
     pagecolor="#ffffff"
     bordercolor="#666666"
     borderopacity="1.0"
     inkscape:pageopacity="0.0"
     inkscape:pageshadow="2"
     inkscape:zoom="1.4"
     inkscape:cx="336.91719"
     inkscape:cy="151.43843"
     inkscape:document-units="mm"
     inkscape:current-layer="svg8"
     showgrid="false"
     inkscape:window-width="1366"
     inkscape:window-height="705"
     inkscape:window-x="-8"
     inkscape:window-y="-8"
     inkscape:window-maximized="1" />
  <metadata
     id="metadata5">
    <rdf:RDF>
      <cc:Work
         rdf:about="">
        <dc:format>image/svg+xml</dc:format>
        <dc:type
           rdf:resource="http://purl.org/dc/dcmitype/StillImage" />
        <dc:title></dc:title>
      </cc:Work>
    </rdf:RDF>
  </metadata>
  <g
     inkscape:label="Calque 1"
     inkscape:groupmode="layer"
     id="layer1" />
  <path
     style="fill:#000000;fill-opacity:1;stroke:#000000;stroke-width:1.01015258"
     d="m -24.941475,256.61129 c -7.99257,-1.8235 -15.58717,-4.24303 -18.06923,-5.75659 -13.09873,-7.9876 -21.45619,-16.74731 -25.32075,-26.53947 -0.76744,-1.94454 -1.76426,-4.02529 -2.21517,-4.62387 -3.27168,-4.34314 -6.44036,-38.22944 -4.05032,-43.31454 0.53359,-1.13528 1.52217,-5.47341 2.19684,-9.64028 0.67468,-4.16688 1.54877,-8.03072 1.94244,-8.5863 0.39366,-0.55558 1.27089,-3.05571 1.94938,-5.55584 0.6785,-2.50013 1.63529,-5.45482 2.1262,-6.56599 0.49091,-1.11117 2.51355,-5.70978 4.49476,-10.21913 3.26543,-7.43231 6.48415,-13.50591 10.68188,-20.15626 2.6403,-4.18295 9.53738,-13.95377 11.11168,-15.741438 0.83337,-0.94634 1.9698,-2.32562 2.52538,-3.06507 10.93923,-14.559575 32.61576,-34.506248 48.88807,-44.986643 4.77984,-3.078521 9.82705,-6.366564 11.216009,-7.306763 3.95537,-2.677428 29.48472,-15.033545 32.57742,-15.767358 1.52785,-0.362519 2.77791,-1.013827 2.77791,-1.447349 0,-0.433523 1.47735,-1.068555 3.283,-1.411181 1.80565,-0.342627 4.41942,-1.213747 5.80838,-1.935821 1.38896,-0.722076 4.79822,-1.926575 7.57614,-2.676668 2.77792,-0.750092 5.50533,-1.698571 6.06092,-2.10773 0.55558,-0.409159 3.73756,-1.297026 7.07106,-1.973038 3.33351,-0.676012 6.51549,-1.582345 7.07107,-2.014075 0.55559,-0.431729 4.41942,-1.317574 8.586296,-1.968544 4.16688,-0.650971 10.30356,-1.816659 13.63706,-2.590419 3.3335,-0.7737588 16.74328,-2.3238028 29.7995,-3.4445408 22.29141,-1.913481 24.93943,-1.947797 43.43656,-0.562898 10.83388,0.811144 21.74353,1.736045 24.24366,2.055336 6.14903,0.78529 27.53061,5.5815468 28.78935,6.4579488 0.55558,0.386825 3.05571,1.258451 5.55584,1.936946 5.0994,1.383897 5.26806,1.453452 17.17259,7.081739 10.43559,4.933797 16.3969,9.613883 15.96461,12.53346 -0.47424,3.202937 -2.11347,3.066544 -5.73836,-0.477464 -1.82609,-1.785345 -4.30583,-3.810606 -5.51053,-4.500579 -5.72672,-3.279923 -15.1622,-7.555341 -17.86848,-8.096597 -1.65533,-0.331065 -3.00968,-0.937569 -3.00968,-1.347789 0,-0.410219 -2.72741,-1.324649 -6.06092,-2.032066 -3.3335,-0.707418 -6.06091,-1.614367 -6.06091,-2.015442 0,-0.401075 -3.52291,-1.287511 -7.82868,-1.969857 -4.30578,-0.682346 -8.73782,-1.637509 -9.84899,-2.122586 -8.94793,-3.906191 -84.02079,-3.903291 -92.93404,0.0036 -1.11116,0.487051 -5.65685,1.424478 -10.10152,2.083171 -4.44467,0.658692 -8.53579,1.540443 -9.09137,1.959447 -0.55559,0.419002 -3.91369,1.316742 -7.46246,1.994976 -3.548746,0.678234 -7.185296,1.644435 -8.081216,2.147111 -0.8959,0.502677 -4.12904,1.579064 -7.18476,2.391972 -8.17312,2.174287 -24.094,7.689914 -30.80965,10.673688 -1.11117,0.493694 -5.26809,2.283489 -9.23759,3.977321 -7.85515,3.351879 -21.8733,11.105175 -22.41386,12.396877 -0.18519,0.44254 -0.849809,0.804617 -1.476929,0.804617 -0.62712,0 -4.56671,2.34812 -8.75466,5.218043 -18.08563,12.393772 -32.09314,25.400586 -47.1422,43.774353 -5.12713,6.25983 -14.51539,20.20241 -14.51539,21.5569 0,0.55174 -0.40738,1.15469 -0.90529,1.33989 -1.1773,0.43789 -11.21655,21.40007 -11.21655,23.42042 0,0.85019 -0.41959,1.80512 -0.93243,2.12208 -0.51284,0.31695 -1.25292,2.0484 -1.64461,3.84769 -0.3917,1.79927 -1.54445,5.88603 -2.56167,9.08168 -2.65124,8.32903 -4.0526,26.83527 -2.89921,38.28685 0.90675,9.00283 5.45412,24.08817 7.26121,24.08817 0.42719,0 0.77671,0.66523 0.77671,1.47827 0,1.74284 11.34315,14.12062 14.61454,15.94757 13.57332,7.58021 18.58874,8.83813 35.23826,8.83813 10.70157001,0 23.31191,-1.4882 25.40357,-2.99798 0.55558,-0.40102 3.28299,-1.32957 6.06091,-2.06344 2.777919,-0.73387 5.947409,-1.94083 7.043299,-2.68213 1.09589,-0.74131 2.60139,-1.34782 3.34555,-1.34782 1.74787,0 8.85876,-3.25824 27.26638,-12.49356 2.06857,-1.03782 3.98831,-2.20005 4.26611,-2.58273 0.27779,-0.38267 1.98242,-1.29333 3.78807,-2.02367 1.80564,-0.73034 3.28299,-1.67216 3.28299,-2.09294 0,-0.42078 1.36371,-1.32992 3.03046,-2.02031 1.66675,-0.69039 3.03046,-1.65468 3.03046,-2.14285 0,-0.48818 0.4939,-0.8876 1.09755,-0.8876 0.89856,0 6.05016,-3.28365 11.50549,-7.33364 0.56871,-0.42221 5.5797,-4.02022 11.13554,-7.99556 16.444366,-11.76638 36.771316,-28.37231 48.316336,-39.47158 5.15131,-4.95243 7.40501,-5.85502 8.36607,-3.35053 0.47772,1.24494 -3.89245,10.22229 -5.68791,11.68429 -0.34116,0.27779 -2.09331,3.0052 -3.89367,6.06091 -1.80036,3.05572 -4.58571,7.6014 -6.18965,10.10153 -1.60394,2.50013 -4.39379,7.04581 -6.19967,10.10152 -1.80587,3.05572 -4.78626,7.71038 -6.62308,10.3437 -1.83684,2.63333 -3.33969,5.00404 -3.33969,5.26823 0,0.2642 -1.36299,2.65534 -3.02885,5.31366 -3.25486,5.19396 -3.68061,5.85274 -7.55923,11.6967 -1.39915,2.1081 -2.5439,4.01984 -2.5439,4.24828 0,0.22845 -1.02278,1.95519 -2.27285,3.83721 -1.25006,1.88202 -3.40926,5.29925 -4.79822,7.59383 -2.4031,3.96998 -5.233086,5.37287 -6.547656,3.24584 -0.73364,-1.18707 1.56083,-5.77526 6.160996,-12.31998 1.87942,-2.67385 3.41712,-5.10817 3.41712,-5.40958 0,-0.53202 7.43021,-12.33907 11.2438,-17.86708 1.0385,-1.50536 1.88818,-2.96252 1.88818,-3.23814 0,-0.27561 1.14476,-2.22594 2.54391,-4.33405 4.19323,-6.31801 4.35071,-6.5629 9.58397,-14.90327 6.72833,-10.72312 6.76117,-13.65925 0.0862,-7.69978 -1.8162,1.6215 -4.70651,4.00798 -6.42292,5.3033 -1.71642,1.29533 -4.28979,3.30729 -5.71861,4.47103 -3.14024,2.55764 -19.11737,14.45386 -22.256806,16.57194 -1.23525,0.83337 -4.92417,3.44714 -8.19761,5.80837 -3.27344,2.36123 -6.21648,4.29315 -6.5401,4.29315 -0.32363,0 -2.03542,1.02392 -3.804,2.27538 -3.80909,2.69535 -4.67653,3.21959 -15.8425,9.57447 -8.3771,4.76765 -15.02295,8.09807 -24.24366,12.14915 -2.50013,1.09842 -6.20538,2.73925 -8.23389,3.64628 -2.02851,0.90703 -4.30135,1.65194 -5.05076,1.65537 -0.74941,0.003 -2.72242,0.71528 -4.384469,1.58191 -2.8434,1.4826 -10.34513,3.4699 -20.71667999,5.4881 -5.56906001,1.0837 -20.44271001,1.06367 -25.25381001,-0.0339 z"
     id="path1377"
     inkscape:connector-curvature="0" />
  <path
     style="fill:none;stroke:#000000;stroke-width:1px;stroke-linecap:butt;stroke-linejoin:miter;stroke-opacity:1"
     d="m 280.61307,36.678931 -11.25,-8.75 -18.03572,-7.5 -21.25,-6.785714 -25.89286,-4.1071428 -30.71428,-1.25 -38.92857,1.7857148 -28.75,4.642857 -27.499996,8.571428 -41.07143,16.071429 -26.428569,16.25 -26.96429,21.607143 -23.39286,26.249994 -16.96428,25.53572 -10.35715,25.17857 -4.10714,20.17857 -1.25,8.92857 -0.17857,9.82143 0.17857,9.82143 1.78572,8.75 3.75,9.10714 3.92857,8.03572 11.42857,13.75 12.14286,7.32143 11.96428,3.92857 12.67857,0.53571 h 11.60715 l 16.42857,-3.03571 15.357139,-5.17857 21.42857,-9.46429 17.67857,-9.64286 13.57143,-8.75 20.357136,-13.92857 21.78572,-16.60714 8.03571,-7.85714 16.07143,-13.21429 -5.35714,12.14286 -10.17857,18.03571 -14.10715,21.78572 -12.67857,20.17857 -7.142846,9.82143 -1.96429,3.75"
     id="path1379"
     inkscape:connector-curvature="0" />
  <path
     style="fill:#000000;fill-opacity:1;stroke:#000000;stroke-width:1.01015258"
     d="m 661.90112,283.40855 c -0.24403,-0.24403 -3.61541,-1.11239 -7.49195,-1.92968 -15.24548,-3.21418 -26.03297,-13.02372 -27.44644,-24.95824 -0.45078,-3.80614 -0.0439,-5.84959 2.02699,-10.18089 1.42503,-2.98044 3.4141,-6.33884 4.42015,-7.46312 2.89595,-3.23627 10.78515,-7.42601 15.3607,-8.15767 2.30502,-0.36858 4.43498,-1.06502 4.73325,-1.54762 0.29826,-0.48261 10.73279,-0.87747 23.18783,-0.87747 h 22.64552 l 1.78314,-2.77792 c 0.98071,-1.52786 2.14544,-3.23249 2.58828,-3.78807 1.89094,-2.37235 28.00004,-45.4081 28.00004,-46.1526 0,-1.88665 -2.05273,-0.44309 -8.66467,6.09334 -13.42306,13.26977 -24.15611,20.11058 -29.78626,18.98454 -1.53307,-0.30661 -4.07506,-1.82691 -5.64887,-3.37844 -2.57915,-2.54262 -2.86202,-3.49373 -2.86688,-9.63949 -0.004,-4.86219 -0.37622,-6.81853 -1.29782,-6.81853 -0.71082,0 -3.5927,1.81827 -6.40416,4.04061 -2.81146,2.22233 -5.49303,4.04061 -5.95905,4.04061 -0.466,0 -1.45161,0.60433 -2.19025,1.34296 -2.38912,2.38912 -14.40934,8.35964 -25.06531,12.45011 -8.66076,3.32457 -18.54468,3.56077 -23.39249,0.55903 -5.57312,-3.45083 -7.13593,-7.18657 -6.76481,-16.1705 l 0.3213,-7.77805 -5.03251,0.27155 c -4.26001,0.22987 -5.54665,-0.1621 -8.38192,-2.55356 -2.99848,-2.52911 -3.44814,-3.6115 -4.29187,-10.33101 -1.06676,-8.49569 -1.74573,-11.12557 -2.87235,-11.12557 -1.25163,0 -15.45921,13.13811 -33.19822,30.69922 -9.04074,8.95008 -17.11071,16.42012 -17.93326,16.60008 -2.8056,0.61381 -2.61148,-2.56206 0.45897,-7.50915 1.68627,-2.71694 3.53681,-5.84902 4.1123,-6.96019 0.57547,-1.11117 2.59264,-4.52043 4.4826,-7.57614 1.88995,-3.05571 3.02031,-5.70669 2.51191,-5.89106 -1.05515,-0.38265 -11.02221,2.72531 -12.55013,3.91341 -2.39436,1.86185 -18.65361,4.73103 -37.63178,6.64068 -4.04386,0.40691 -5.57996,1.04421 -6.45419,2.67772 -0.66796,1.24809 -1.25808,8.40442 -1.41249,17.12904 -0.14588,8.24194 -0.71301,15.54024 -1.26029,16.21844 -0.54729,0.6782 -1.32078,3.27866 -1.71889,5.77879 -2.18587,13.72776 -13.52627,30.23051 -25.2635,36.76388 -9.76223,5.43404 -28.60584,9.61884 -28.90903,6.42014 -0.24704,-2.60631 0.35894,-4.23655 2.73057,-7.34591 1.34193,-1.75938 2.43988,-3.68628 2.43988,-4.28202 0,-0.59574 0.36096,-1.23468 0.80212,-1.41988 0.44117,-0.18519 10.66897,-15.15078 22.72843,-33.25687 21.47651,-32.24483 21.92631,-33.02711 21.92631,-38.13326 v -5.2131 h 3.55719 c 2.81566,0 3.79746,-0.52733 4.70978,-2.52966 0.63392,-1.3913 0.92237,-2.75986 0.64099,-3.04123 -0.51833,-0.51833 -7.72922,1.72246 -11.43334,3.55292 -4.5792,2.26289 -18.73556,4.77452 -37.71461,6.69136 -4.99051,0.50402 -5.49743,0.80211 -6.84379,4.02441 -1.01169,2.42131 -1.27223,5.3923 -0.85637,9.76549 0.85968,9.04049 -2.13654,28.97415 -5.49983,36.59002 -4.2249,9.56694 -7.38327,14.64118 -12.17793,19.56507 -6.87189,7.05709 -13.1673,10.68528 -24.04839,13.85966 -14.83807,4.32876 -18.96731,2.80396 -13.6665,-5.04663 1.53539,-2.27394 3.25316,-4.91128 3.81727,-5.86077 1.66854,-2.80838 41.81502,-62.73993 43.50401,-64.94373 0.8516,-1.11117 1.41558,-3.38402 1.25329,-5.05077 -0.5089,-5.22644 -4.13449,-3.53139 -13.82823,6.46502 -10.6302,10.96211 -16.94935,14.5342 -25.93652,14.66137 -10.65442,0.15078 -15.58364,-4.90397 -15.58364,-15.9805 0,-2.83757 0.44679,-6.71711 0.99287,-8.62119 1.68249,-5.86648 1.3328,-5.77801 -11.821,2.99058 -11.32937,7.55239 -15.91942,9.92758 -28.56782,14.78287 -9.11838,3.50022 -18.78994,3.59704 -23.69864,0.23722 -5.61793,-3.84527 -6.97606,-7.35227 -6.38911,-16.49821 0.27674,-4.31206 0.93518,-8.13458 1.4632,-8.49448 0.52803,-0.3599 1.55492,-2.12522 2.28198,-3.92295 0.72706,-1.79772 4.3378,-6.43112 8.02387,-10.29644 13.90679,-14.58304 35.35292,-20.85496 43.58328,-12.74594 4.3769,4.31237 5.03999,5.44262 5.03999,8.59067 0,6.59067 -12.78314,15.14234 -25.72557,17.2099 -7.06213,1.12818 -16.43377,-0.12139 -20.39978,-2.72001 -3.05409,-2.00113 -4.89887,-0.61388 -7.61736,5.72811 -3.94032,9.19239 -2.03359,17.08117 4.7552,19.67384 4.57638,1.74774 7.69714,1.99254 9.13699,0.71674 0.52781,-0.46766 3.57342,-1.40939 6.76803,-2.09274 3.1946,-0.68335 5.80837,-1.66442 5.80837,-2.18016 0,-0.51574 0.56821,-0.93911 1.26269,-0.94082 1.77571,-0.004 13.25811,-5.91819 20.39572,-10.50445 8.9028,-5.7205 18.55802,-13.70826 24.67829,-20.41637 2.98404,-3.27065 7.11654,-7.76698 9.18333,-9.99184 8.8837,-9.56312 22.60503,-12.86349 30.67674,-7.37862 6.81368,4.63002 8.2525,7.42763 8.2525,16.04603 0,4.23247 -0.51258,8.3332 -1.13906,9.11274 -0.62649,0.77954 -1.45261,2.44012 -1.83584,3.69019 -0.96523,3.14852 1.55785,2.99875 7.43183,-0.44117 5.42367,-3.17619 6.32939,-4.25195 15.97479,-18.97409 4.01486,-6.12802 7.76701,-11.69298 8.33811,-12.36658 0.57111,-0.67359 1.56395,-2.37822 2.20632,-3.78807 0.64237,-1.40984 1.47658,-2.56335 1.8538,-2.56335 0.37723,0 1.21144,-1.15351 1.85381,-2.56336 0.64237,-1.40984 1.64289,-3.11447 2.22337,-3.78807 2.3388,-2.71393 20.16649,-30.18741 20.16649,-31.07769 0,-0.526173 0.34092,-0.965263 0.75761,-0.975758 0.41669,-0.01049 2.12132,-2.321361 3.78807,-5.135261 1.66675,-2.813899 3.49601,-5.646368 4.06501,-6.294373 0.569,-0.648006 3.41524,-4.814742 6.32499,-9.259413 2.90974,-4.444671 6.03078,-9.104 6.93562,-10.354064 1.96937,-2.720689 5.4034,-3.041796 5.40147,-0.505076 -10e-4,1.412141 -11.28936,19.502319 -15.01018,24.054748 -0.4827,0.590578 -1.45517,2.152938 -2.16107,3.471909 -0.70589,1.318971 -1.68416,2.881331 -2.17393,3.471908 -0.48977,0.590578 -7.01188,10.39244 -14.49359,21.78191 -7.4817,11.38947 -13.96017,21.16269 -14.39661,21.71828 -0.43643,0.55558 -2.25039,3.28299 -4.03102,6.06091 -1.78064,2.77792 -3.706,5.60189 -4.27858,6.27548 -0.5726,0.6736 -1.56665,2.37823 -2.20903,3.78807 -0.64236,1.40985 -1.49439,2.56336 -1.89339,2.56336 -0.39901,0 -1.29032,1.3637 -1.98071,3.03045 -0.69039,1.66676 -1.65468,3.03046 -2.14286,3.03046 -0.48818,0 -0.8876,0.89332 -0.8876,1.98515 0,1.09185 -1.36371,3.53834 -3.03046,5.43667 -3.65621,4.16419 -3.95098,6.75019 -0.75761,6.64658 5.04436,-0.16368 29.0854,-4.78841 30.49735,-5.86674 0.58846,-0.4494 3.22912,-1.40128 5.86814,-2.11528 2.63902,-0.71399 4.79822,-1.64439 4.79822,-2.06754 0,-0.42315 1.21946,-1.07542 2.70991,-1.4495 7.60936,-1.90983 11.20643,-5.43755 21.51897,-21.10412 5.54112,-8.41793 10.43354,-15.7599 10.87207,-16.31548 0.43851,-0.55558 2.25418,-3.283 4.03482,-6.06092 1.78063,-2.77792 3.59891,-5.50533 4.04061,-6.06091 0.4417,-0.55558 2.2751,-3.283 4.07424,-6.06092 1.79913,-2.77792 3.72456,-5.73261 4.27874,-6.56599 0.55417,-0.83337 6.96759,-10.492957 14.25203,-21.465739 9.41512,-14.182267 13.79475,-19.950513 15.14778,-19.950513 1.17043,0 1.90334,0.711273 1.90334,1.84712 0,1.526293 -4.09891,8.693266 -7.32059,12.800092 -0.43584,0.555584 -7.82394,11.692516 -16.41799,24.74874 -8.59406,13.05622 -16.08925,24.28971 -16.65597,24.9633 -0.56673,0.67359 -1.55598,2.37823 -2.19836,3.78807 -0.64236,1.40985 -1.47658,2.56336 -1.8538,2.56336 -0.37722,0 -1.21144,1.15351 -1.8538,2.56335 -0.64238,1.40985 -1.6293,3.11448 -2.19316,3.78807 -2.48891,2.97324 -14.0513,21.08545 -14.63554,22.92623 -0.3556,1.12039 -0.99392,2.03708 -1.4185,2.03708 -1.16324,0 -7.17312,9.63955 -7.17312,11.50533 0,1.87144 1.24496,1.95167 9.59645,0.6185 16.20226,-2.58644 32.78026,-7.16406 33.67175,-9.29766 0.1852,-0.44323 1.039,-0.80587 1.89735,-0.80587 0.85833,0 4.02648,-1.41082 7.04031,-3.13516 5.40384,-3.09176 9.20602,-7.73828 14.58636,-17.82551 1.22565,-2.29787 4.32117,-3.06278 5.39081,-1.33206 0.62403,1.00969 -2.43469,8.15059 -3.49121,8.15059 -0.34898,0 -1.25877,1.59099 -2.02175,3.53554 -0.76298,1.94454 -1.75696,3.53553 -2.20885,3.53553 -0.45188,0 -0.82161,0.73549 -0.82161,1.63441 0,0.89893 -1.3637,3.1876 -3.03046,5.08592 -1.66675,1.89832 -3.03045,3.89024 -3.03045,4.4265 0,2.44491 3.22934,0.24282 12.12183,-8.26584 10.16392,-9.72523 19.15778,-17.02312 20.97914,-17.02312 2.81007,0 4.98632,5.06298 5.60069,13.02986 0.78473,10.17633 1.96243,12.22395 7.03064,12.22395 5.98891,0 9.80423,-2.16586 17.42195,-9.89 4.8706,-4.93864 9.5707,-8.48345 15.13871,-11.41758 7.56976,-3.98898 8.61239,-4.2614 16.66138,-4.35329 7.11898,-0.0813 9.04361,0.24723 11.26235,1.92229 3.92099,2.96016 6.30475,7.88705 5.45469,11.27399 -0.67475,2.68841 -7.99886,10.44429 -9.86286,10.44429 -0.48997,0 -2.78776,0.91648 -5.1062,2.03662 -9.04039,4.36784 -24.25687,4.51098 -30.70074,0.2888 -3.05162,-1.99951 -4.88572,-0.62245 -7.64706,5.74149 -2.15194,4.95947 -2.71228,14.35275 -0.89238,14.95938 0.61969,0.20657 1.1267,0.93207 1.1267,1.61222 0,1.74344 7.7768,4.9728 10.42472,4.32893 13.26492,-3.2255 15.83925,-4.00665 15.83925,-4.80624 0,-0.51023 0.56821,-0.9291 1.26269,-0.93081 1.84594,-0.005 13.45544,-6.00797 20.45559,-10.57784 10.31649,-6.73486 24.74874,-18.98773 24.74874,-21.0115 0,-0.47697 1.13642,-2.35715 2.52538,-4.17817 1.38896,-1.82102 2.52538,-3.60897 2.52538,-3.97321 0,-0.36425 0.7955,-1.51742 1.76777,-2.5626 0.97227,-1.04518 2.6769,-3.10213 3.78807,-4.57098 3.44996,-4.56053 4.63914,-5.65052 6.16477,-5.65052 3.18167,0 2.45531,3.13006 -2.04097,8.79496 -7.62006,9.60059 -11.20614,14.97047 -12.17204,18.22662 -0.37081,1.25007 -1.06288,2.27285 -1.53795,2.27285 -0.47505,0 -1.40847,1.70463 -2.07425,3.78807 -0.6658,2.08344 -1.61018,4.21991 -2.09865,4.74771 -0.48847,0.52781 -0.88812,3.29842 -0.88812,6.15689 0,3.75213 0.51365,5.6621 1.8473,6.86904 2.76588,2.50309 8.37075,2.0828 12.91148,-0.96818 6.15353,-4.13462 29.19935,-28.14395 34.68794,-36.13817 0.80546,-1.17317 2.28281,-2.72702 3.283,-3.453 1.00018,-0.72599 1.81851,-1.74877 1.81851,-2.27285 0,-0.52408 0.7955,-1.79648 1.76777,-2.82755 0.97227,-1.03108 3.28205,-3.5312 5.13283,-5.55584 3.27716,-3.585 7.40369,-4.86033 8.73843,-2.70067 0.71151,1.15124 -2.32901,6.91308 -7.30527,13.84362 -1.25006,1.74099 -2.27284,3.4134 -2.27284,3.71647 0,0.30307 -1.47735,2.73139 -3.283,5.39627 -4.69624,6.93098 -9.84898,15.56727 -9.84898,16.50746 0,0.44197 -0.34093,0.95511 -0.75762,1.14031 -0.41669,0.18519 -1.94045,2.15499 -3.38614,4.37732 -8.49072,13.05203 -12.01868,18.68887 -12.01868,19.20295 0,0.31916 -0.47247,1.12932 -1.04994,1.80036 -2.44033,2.83574 -12.05731,18.49758 -12.06915,19.65533 -0.0102,0.99931 16.1696,1.26269 77.56682,1.26269 55.9907,0 77.89507,0.31536 78.71296,1.13325 0.62329,0.62329 0.89285,1.75971 0.59903,2.52538 -0.44756,1.16634 -13.50115,1.39464 -80.48073,1.4076 -43.97057,0.008 -80.42137,0.34943 -81.00177,0.75762 -0.58039,0.40818 -1.99174,2.33313 -3.13634,4.27768 -1.14458,1.94454 -4.41991,7.31909 -7.27849,11.94345 -2.85859,4.62434 -5.19743,8.621 -5.19743,8.88146 0,0.26046 -0.46652,1.02259 -1.03672,1.69362 -0.57019,0.67103 -2.31013,3.26561 -3.86652,5.76574 -10.67788,17.15254 -10.69162,17.17004 -14.28966,18.18464 -3.87833,1.09366 -5.49118,1.24128 -6.1679,0.56456 z m 7.17806,-8.03452 c 0,-0.77394 0.68185,-1.6688 1.51523,-1.98861 0.83337,-0.31979 1.51522,-1.08061 1.51522,-1.6907 0,-0.61009 1.13643,-2.59917 2.52539,-4.4202 1.38896,-1.82102 2.52538,-3.62815 2.52538,-4.01585 0,-0.38769 0.4707,-1.25392 1.046,-1.92495 2.72552,-3.17905 16.12011,-24.61308 16.12315,-25.80027 0.003,-1.09226 -4.24314,-1.28135 -22.47245,-1.00081 -22.02938,0.33903 -22.57624,0.39891 -27.52666,3.01449 -8.35404,4.41387 -11.61676,9.19155 -11.61676,17.01069 0,8.22949 4.82033,14.17013 15.65737,19.29632 4.88848,2.31237 7.4776,2.87277 13.38452,2.897 5.60082,0.023 7.32361,-0.30098 7.32361,-1.37711 z M 408.30623,260.41488 c 7.317,-3.60537 16.67743,-12.50583 18.52473,-17.61443 0.67518,-1.8672 1.54552,-3.39491 1.93409,-3.39491 0.38855,0 1.27238,-2.38649 1.96404,-5.30331 0.69166,-2.91681 1.61897,-5.54062 2.0607,-5.83069 0.94903,-0.62319 2.94415,-15.63432 2.94415,-22.15158 v -4.54923 l -2.43782,2.50243 c -1.34081,1.37633 -9.43539,12.9575 -17.98798,25.73593 -8.55259,12.77843 -17.2446,25.63782 -19.31559,28.57642 -2.07099,2.93861 -3.525,5.73194 -3.23115,6.20741 0.836,1.35268 8.5019,-0.70772 15.54483,-4.17804 z m 54.1507,0.22676 c 9.89247,-4.91925 19.15561,-14.89261 21.96588,-23.65002 0.55453,-1.72805 1.60853,-4.50563 2.34224,-6.17238 1.59347,-3.61994 3.51713,-16.76902 3.51713,-24.04126 v -5.20725 l -2.42374,2.50243 c -1.33305,1.37633 -4.96901,6.36625 -8.07989,11.08871 -3.11088,4.72247 -6.11327,9.13742 -6.67199,9.81102 -0.55871,0.67359 -1.54141,2.37822 -2.18379,3.78807 -0.64236,1.40984 -1.5189,2.56336 -1.94787,2.56336 -0.42896,0 -1.06763,0.90645 -1.41926,2.01432 -0.35162,1.10788 -1.18253,2.58522 -1.84646,3.283 -2.72082,2.85953 -18.75813,27.39106 -18.34438,28.06055 0.8183,1.32402 8.36975,-0.6977 15.09213,-4.04055 z m -64.5532,-56.42115 c 0.5278,-0.46192 2.77791,-1.3596 5.00025,-1.99482 3.94533,-1.12771 14.64721,-9.94463 14.64721,-12.06732 0,-0.59342 -4.14957,-1.21226 -9.84898,-1.46882 -8.06552,-0.36305 -10.58067,-0.8792 -13.8896,-2.85029 -2.22234,-1.32383 -4.3651,-2.88183 -4.7617,-3.46222 -0.46675,-0.68306 -1.34029,-0.4362 -2.4767,0.69991 -2.14426,2.14371 -3.13491,13.5936 -1.44872,16.74427 2.04623,3.82342 10.2206,6.63769 12.77824,4.39929 z m 23.183,-21.50452 c 3.4109,-0.85808 4.49471,-1.83171 6.95443,-6.24751 5.1209,-9.19326 4.74909,-22.16403 -0.7076,-24.68538 -6.51734,-3.01143 -7.42058,-3.11617 -13.14137,-1.52387 -4.07426,1.13401 -7.2711,2.99395 -11.2662,6.55472 -3.06782,2.7343 -5.57785,5.52197 -5.57785,6.19483 0,0.84731 2.25129,1.21645 7.32361,1.20086 9.96555,-0.0306 13.09996,0.89875 12.69199,3.76333 -0.22519,1.58127 -0.91074,2.15304 -2.33841,1.95029 -11.68538,-1.6595 -14.06119,-1.44668 -18.93988,1.69661 -5.00146,3.22237 -5.45185,4.06773 -3.80584,7.14334 0.92097,1.72084 8.27947,4.53235 14.1599,5.41016 3.19214,0.47651 9.42505,-0.14365 14.64722,-1.45738 z m -73.30879,-11.85268 c 0.31779,-0.49746 1.94151,-1.20409 3.60826,-1.57029 1.66675,-0.36621 5.18966,-2.01514 7.82868,-3.6643 3.95025,-2.46856 4.79823,-3.52155 4.79823,-5.95828 0,-3.90876 -4.43992,-7.14713 -9.75239,-7.11317 -7.64852,0.0489 -16.82194,4.02487 -25.26426,10.9501 -4.41459,3.62129 -4.6994,5.4951 -1.02643,6.7531 1.21163,0.41499 3.1121,1.12431 4.22327,1.57628 2.51488,1.02291 14.79948,0.25559 15.58464,-0.97344 z m 303.40877,0.0609 c 0.67372,-0.54223 2.58866,-1.28087 4.25541,-1.64143 1.66675,-0.36057 5.18966,-2.00488 7.82868,-3.65404 3.95025,-2.46856 4.79822,-3.52155 4.79822,-5.95828 0,-3.90876 -4.43992,-7.14713 -9.75238,-7.11317 -4.39778,0.0281 -13.90169,2.9706 -18.19192,5.63236 -4.59608,2.85148 -9.43134,7.7335 -9.43134,9.52253 0,1.49775 1.90486,2.88872 6.06091,4.42581 2.24708,0.83107 13.0171,-0.0747 14.43242,-1.21381 z"
     id="path1392"
     inkscape:connector-curvature="0"
     transform="translate(-150)" />
  <path
     style="fill:none;stroke:#000000;stroke-width:1px;stroke-linecap:butt;stroke-linejoin:miter;stroke-opacity:1"
     d="m 169.90268,169.05898 8.14436,4.41941 6.9448,1.19956 h 9.97525 l 6.566,-1.6415 8.90197,-5.1139 5.24016,-4.48255 0.88389,-3.4724 -0.31568,-3.34613 -2.52538,-3.40926 -6.25032,-2.90419 -14.52094,1.19956 -7.82868,4.04061 -8.27063,6.43972 -10.66973,12.12183 -3.283,8.14435 -1.01015,9.65959 1.51523,4.92449 1.51523,2.65165 1.95717,1.89404 3.28299,1.76776 4.54569,0.75762 8.27062,-1.70463 14.45781,-5.42957 7.19734,-3.72494 7.82868,-4.23001 10.35406,-7.07107 10.2278,-5.42957 9.59645,-11.93243 7.07107,-9.09137 5.80837,-4.73509 6.31346,-2.39911 4.48255,-1.32583 2.46225,-0.12627 4.79822,0.0631 3.85121,1.19955 2.52538,2.14658 2.39911,2.58851 1.32583,3.03046 0.94701,4.04061 0.0631,4.23001 -1.07329,3.72494 -2.0203,7.38674 -2.65165,5.68211 -3.91435,5.05076 -5.80837,8.08122 -3.85121,3.34613 -7.63928,5.17703 -4.29315,2.71479 -7.57614,1.8309 -8.39689,-1.07329 -5.1139,-3.72493 -0.0631,-11.17482 v -9.02823 l 2.20971,-4.86136 3.72494,-6.43973 3.72494,-3.15672 4.35628,-1.07329 5.99778,-0.56821 9.34391,0.12627 2.71479,1.07329 -5.1139,-0.75762 -10.796,0.37881 -6.50286,1.70463 -1.57836,3.09359 -1.51523,2.71479 0.44194,3.97747 1.51523,2.77792 1.95717,1.38896 7.70241,2.08344 8.14436,2.02031 7.70241,0.1894 7.38674,-1.26269 6.50286,-1.8309 11.22985,-2.86563 4.10715,-2.94643 2.14285,-2.85715 5.89286,-8.21428 4.46429,-6.78572 4.64285,-6.78571 5.80357,-8.66071 6.60715,-10.26786 6.78571,-9.91072 6.51786,-10.08928 7.67857,-11.07143 8.66071,-13.125001 8.30358,-12.053571 2.85714,-5 2.5,-5.089286 -12.32143,18.839286 -9.91071,14.017862 L 339.375,112.14286 319.01786,142.5 301.33929,168.75 290.53572,183.57143 281.51786,200 l -20.17857,30.53571 -19.19643,27.41072 -2.85714,4.64286 -2.5,4.01785 0.17857,1.25 1.25,0.98215 2.32143,0.44642 7.5,-1.96428 8.92857,-3.39286 7.94643,-4.46428 10.71428,-10.26786 4.91072,-6.33929 3.39285,-7.58928 2.05357,-7.5 2.67858,-18.57143 -1.07143,-7.5 -0.0893,-5.80357 v -6.42857 l 2.14286,-4.375 5.35714,-1.25 10.35714,-1.69643 20.53572,-2.41072 6.33928,-1.875 12.23215,-4.82143 9.01785,-4.10714 7.85715,-6.42857 6.96428,-11.78571 8.48215,-12.94643 7.94642,-12.05357 6.96429,-9.01786 5.44643,-7.94643 8.125,-13.125001 6.25,-8.035714 4.46428,-7.321428 5.53572,-7.857143 1.875,-3.482143 -4.55357,9.196428 -10.35715,14.107143 -6.69642,10.089288 -8.92858,13.39286 -11.78571,16.78571 -29.28571,44.46429 -8.03572,9.55357 -15.625,25.17857 -14.82143,23.66071 -19.375,29.46429 -1.07143,2.67857 0.35715,0.98214 1.25,0.53572 4.28571,-0.0893 12.85714,-4.91071 9.375,-6.33929 8.125,-7.05357 5.35715,-7.14286 3.66071,-9.46428 2.5,-9.73215 1.16072,-9.28571 0.625,-15.08929 -0.80358,-5.17857 -0.71428,-11.16071 0.80357,-0.80357 9.375,-0.17857 17.67857,-0.98215 12.32143,-2.67857 16.69643,-4.82143 7.58928,-3.83928 7.41072,-4.55357 5.625,-9.01786 4.91071,-7.32143 -2.67857,5.17857 -5.53571,10.89286 c 0,0 -6.69643,8.57143 -6.96429,8.92857 -0.26786,0.35714 -12.14286,19.64286 -12.14286,19.64286 l -3.48214,5.17857 20.89286,-20.26786 14.73214,-13.75 10.17857,-10.35714 4.01786,-3.03572 3.48214,0.44643 1.96429,8.21429 1.51786,10 c 0,0 1.69642,4.375 2.14285,4.375 0.44643,0 6.96429,1.96428 6.96429,1.96428 l 8.48214,-2.05357 6.51785,-4.10714 11.87501,3.75 15.91886,-0.59366 10.42043,-4.04919 7.23214,-4.91072 1.42857,-8.30357 -2.76786,-3.39286 -4.28571,-2.32143 -8.125,-0.44642 -11.60715,1.87499 -12.85714,9.82142 c -4.48518,6.14679 -8.93845,11.67647 -12.5,14.82144 v 0 c 0,0 -2.5,5.53571 -2.5,5.98214 0,0.44643 -0.35714,10.26786 -0.35714,10.26786 l 3.57143,6.33929 6.42857,3.48214 14.91071,-1.42857 24.28572,-10.98215 19.19643,-14.28571 11.16071,-10.44643 10.53571,-15.35714 4.55358,-6.16072 -17.41071,25.0893 -4.82143,11.69643 -0.35714,5.35714 1.42857,8.03572 2.05357,2.05357 4.01786,1.60714 5.26786,-1.33929 9.375,-6.69642 16.33928,-15.44643 8.125,-7.58929 13.21429,-14.375 7.67857,-12.14286 -11.875,24.28572 -5.35714,8.66071 -4.82143,6.875 -13.125,19.10715 -6.33929,11.33928 -13.83928,22.23214 L 541.69643,245 530.71429,263.57143 c 0,0 -3.48215,5.53571 -3.75,5.89286 -0.26786,0.35714 -6.25,8.83928 -6.25,8.83928 l -5.89286,1.78572 -5,0.26785 -9.64286,-3.57143 -7.5,-3.92857 -8.125,-7.58928 -3.92857,-7.85715 -0.0893,-6.16071 1.96428,-6.51786 4.73214,-6.875 7.94643,-3.48214 8.66072,-2.5 24.91071,-0.89286 15.71429,-0.35714 10,-1.42857 5.625,-0.17857 30.71428,0.26785 37.14286,-0.80357 22.94643,0.0893 14.10714,0.0893 22.67857,-0.26785 h 9.19643 l 11.96429,0.26785 4.82143,-0.17857"
     id="path1394"
     inkscape:connector-curvature="0"
     sodipodi:nodetypes="cccccccccccccccccccccccccccccccccccccccccccccccccccccccccccccccccccccccccccccccccccccccccccccccccccccccccccccccccccccccccccccccccccccccccccccccccccccccccccccccccccccccscccccccccscccccccccccccccscccccccccccccccccccccccccccccccccccccccccccccccccccccc" />
</svg>
