<?xml version="1.0" encoding="UTF-8" standalone="no"?>
<!-- Created with Inkscape (http://www.inkscape.org/) -->

<svg
   xmlns:dc="http://purl.org/dc/elements/1.1/"
   xmlns:cc="http://creativecommons.org/ns#"
   xmlns:rdf="http://www.w3.org/1999/02/22-rdf-syntax-ns#"
   xmlns:svg="http://www.w3.org/2000/svg"
   xmlns="http://www.w3.org/2000/svg"
   xmlns:sodipodi="http://sodipodi.sourceforge.net/DTD/sodipodi-0.dtd"
   xmlns:inkscape="http://www.inkscape.org/namespaces/inkscape"
   width="600"
   height="300"
   viewBox="0 0 600 300"
   version="1.1"
   id="svg8"
   inkscape:version="0.92.3 (2405546, 2018-03-11)"
   sodipodi:docname="G.svg">
  <defs
     id="defs2" />
  <sodipodi:namedview
     id="base"
     pagecolor="#ffffff"
     bordercolor="#666666"
     borderopacity="1.0"
     inkscape:pageopacity="0.0"
     inkscape:pageshadow="2"
     inkscape:zoom="5.6"
     inkscape:cx="306.57661"
     inkscape:cy="83.975764"
     inkscape:document-units="mm"
     inkscape:current-layer="svg8"
     showgrid="false"
     inkscape:window-width="1366"
     inkscape:window-height="705"
     inkscape:window-x="-8"
     inkscape:window-y="-8"
     inkscape:window-maximized="1" />
  <metadata
     id="metadata5">
    <rdf:RDF>
      <cc:Work
         rdf:about="">
        <dc:format>image/svg+xml</dc:format>
        <dc:type
           rdf:resource="http://purl.org/dc/dcmitype/StillImage" />
        <dc:title></dc:title>
      </cc:Work>
    </rdf:RDF>
  </metadata>
  <g
     inkscape:label="Calque 1"
     inkscape:groupmode="layer"
     id="layer1" />
  <path
     style="fill:#000000;fill-opacity:1;stroke:#000000;stroke-width:1.01015258"
     d="m 191.23117,263.68236 c -7.99257,-1.8235 -15.58717,-4.24303 -18.06923,-5.75659 -13.09873,-7.9876 -21.45619,-16.74731 -25.32075,-26.53947 -0.76744,-1.94454 -1.76426,-4.02529 -2.21517,-4.62387 -3.27168,-4.34314 -6.44036,-38.22944 -4.05032,-43.31454 0.53359,-1.13528 1.52217,-5.47341 2.19684,-9.64028 0.67468,-4.16688 1.54877,-8.03072 1.94244,-8.5863 0.39366,-0.55558 1.27089,-3.05571 1.94938,-5.55584 0.6785,-2.50013 1.63529,-5.45482 2.1262,-6.56599 0.49091,-1.11117 2.51355,-5.70978 4.49476,-10.21913 3.26543,-7.43231 6.48415,-13.50591 10.68188,-20.15626 2.6403,-4.18295 9.53738,-13.95377 11.11168,-15.74144 0.83337,-0.94634 1.9698,-2.32562 2.52538,-3.06507 10.93923,-14.559575 32.61576,-34.506248 48.88807,-44.986643 4.77984,-3.078521 9.82705,-6.366564 11.21601,-7.306763 3.95537,-2.677428 29.48472,-15.033545 32.57742,-15.767358 1.52785,-0.362519 2.77791,-1.013827 2.77791,-1.447349 0,-0.433523 1.47735,-1.068555 3.283,-1.411181 1.80565,-0.342627 4.41942,-1.213747 5.80838,-1.935821 1.38896,-0.722076 4.79822,-1.926575 7.57614,-2.676668 2.77792,-0.750092 5.50533,-1.698571 6.06092,-2.10773 0.55558,-0.409159 3.73756,-1.297026 7.07106,-1.973038 3.33351,-0.676012 6.51549,-1.582345 7.07107,-2.014075 0.55559,-0.431729 4.41942,-1.317574 8.5863,-1.968544 4.16688,-0.650971 10.30356,-1.816659 13.63706,-2.590419 3.3335,-0.773759 16.74328,-2.323803 29.7995,-3.444541 22.29141,-1.913481 24.93943,-1.947797 43.43656,-0.562898 10.83388,0.811144 21.74353,1.736045 24.24366,2.055336 6.14903,0.78529 27.53061,5.581547 28.78935,6.457949 0.55558,0.386825 3.05571,1.258451 5.55584,1.936946 5.0994,1.383897 5.26806,1.453452 17.17259,7.081739 10.43559,4.933797 16.3969,9.613883 15.96461,12.53346 -0.47424,3.202937 -2.11347,3.066544 -5.73836,-0.477464 -1.82609,-1.785345 -4.30583,-3.810606 -5.51053,-4.500579 -5.72672,-3.279923 -15.1622,-7.555341 -17.86848,-8.096597 -1.65533,-0.331065 -3.00968,-0.937569 -3.00968,-1.347789 0,-0.410219 -2.72741,-1.324649 -6.06092,-2.032066 -3.3335,-0.707418 -6.06091,-1.614367 -6.06091,-2.015442 0,-0.401075 -3.52291,-1.287511 -7.82868,-1.969857 -4.30578,-0.682346 -8.73782,-1.637509 -9.84899,-2.122586 -8.94793,-3.906191 -84.02079,-3.903291 -92.93404,0.0036 -1.11116,0.487051 -5.65685,1.424478 -10.10152,2.083171 -4.44467,0.658692 -8.53579,1.540443 -9.09137,1.959447 -0.55559,0.419002 -3.91369,1.316742 -7.46246,1.994976 -3.54875,0.678234 -7.1853,1.644435 -8.08122,2.147111 -0.8959,0.502677 -4.12904,1.579064 -7.18476,2.391972 -8.17312,2.174287 -24.094,7.689914 -30.80965,10.673688 -1.11117,0.493694 -5.26809,2.283489 -9.23759,3.977321 -7.85515,3.351879 -21.8733,11.105175 -22.41386,12.396877 -0.18519,0.44254 -0.84981,0.804617 -1.47693,0.804617 -0.62712,0 -4.56671,2.34812 -8.75466,5.218043 -18.08563,12.393772 -32.09314,25.400586 -47.1422,43.774355 -5.12713,6.25983 -14.51539,20.20241 -14.51539,21.5569 0,0.55174 -0.40738,1.15469 -0.90529,1.33989 -1.1773,0.43789 -11.21655,21.40007 -11.21655,23.42042 0,0.85019 -0.41959,1.80512 -0.93243,2.12208 -0.51284,0.31695 -1.25292,2.0484 -1.64461,3.84769 -0.3917,1.79927 -1.54445,5.88603 -2.56167,9.08168 -2.65124,8.32903 -4.0526,26.83527 -2.89921,38.28685 0.90675,9.00283 5.45412,24.08817 7.26121,24.08817 0.42719,0 0.77671,0.66523 0.77671,1.47827 0,1.74284 11.34315,14.12062 14.61454,15.94757 13.57332,7.58021 18.58874,8.83813 35.23826,8.83813 10.70157,0 23.31191,-1.4882 25.40357,-2.99798 0.55558,-0.40102 3.28299,-1.32957 6.06091,-2.06344 2.77792,-0.73387 5.94741,-1.94083 7.0433,-2.68213 1.09589,-0.74131 2.60139,-1.34782 3.34555,-1.34782 1.74787,0 8.85876,-3.25824 27.26638,-12.49356 2.06857,-1.03782 3.98831,-2.20005 4.26611,-2.58273 0.27779,-0.38267 1.98242,-1.29333 3.78807,-2.02367 1.80564,-0.73034 3.28299,-1.67216 3.28299,-2.09294 0,-0.42078 1.36371,-1.32992 3.03046,-2.02031 1.66675,-0.69039 3.03046,-1.65468 3.03046,-2.14285 0,-0.48818 0.4939,-0.8876 1.09755,-0.8876 0.89856,0 6.05016,-3.28365 11.50549,-7.33364 0.56871,-0.42221 5.5797,-4.02022 11.13554,-7.99556 16.44437,-11.76638 36.77132,-28.37231 48.31634,-39.47158 5.15131,-4.95243 7.40501,-5.85502 8.36607,-3.35053 0.47772,1.24494 -3.89245,10.22229 -5.68791,11.68429 -0.34116,0.27779 -2.09331,3.0052 -3.89367,6.06091 -1.80036,3.05572 -4.58571,7.6014 -6.18965,10.10153 -1.60394,2.50013 -4.39379,7.04581 -6.19967,10.10152 -1.80587,3.05572 -4.78626,7.71038 -6.62308,10.3437 -1.83684,2.63333 -3.33969,5.00404 -3.33969,5.26823 0,0.2642 -1.36299,2.65534 -3.02885,5.31366 -3.25486,5.19396 -3.68061,5.85274 -7.55923,11.6967 -1.39915,2.1081 -2.5439,4.01984 -2.5439,4.24828 0,0.22845 -1.02278,1.95519 -2.27285,3.83721 -1.25006,1.88202 -3.40926,5.29925 -4.79822,7.59383 -2.4031,3.96998 -5.23309,5.37287 -6.54766,3.24584 -0.73364,-1.18707 1.56083,-5.77526 6.161,-12.31998 1.87942,-2.67385 3.41712,-5.10817 3.41712,-5.40958 0,-0.53202 7.43021,-12.33907 11.2438,-17.86708 1.0385,-1.50536 1.88818,-2.96252 1.88818,-3.23814 0,-0.27561 1.14476,-2.22594 2.54391,-4.33405 4.19323,-6.31801 4.35071,-6.5629 9.58397,-14.90327 6.72833,-10.72312 6.76117,-13.65925 0.0862,-7.69978 -1.8162,1.6215 -4.70651,4.00798 -6.42292,5.3033 -1.71642,1.29533 -4.28979,3.30729 -5.71861,4.47103 -3.14024,2.55764 -19.11737,14.45386 -22.25681,16.57194 -1.23525,0.83337 -4.92417,3.44714 -8.19761,5.80837 -3.27344,2.36123 -6.21648,4.29315 -6.5401,4.29315 -0.32363,0 -2.03542,1.02392 -3.804,2.27538 -3.80909,2.69535 -4.67653,3.21959 -15.8425,9.57447 -8.3771,4.76765 -15.02295,8.09807 -24.24366,12.14915 -2.50013,1.09842 -6.20538,2.73925 -8.23389,3.64628 -2.02851,0.90703 -4.30135,1.65194 -5.05076,1.65537 -0.74941,0.003 -2.72242,0.71528 -4.38447,1.58191 -2.8434,1.4826 -10.34513,3.4699 -20.71668,5.4881 -5.56906,1.0837 -20.44271,1.06367 -25.25381,-0.0339 z"
     id="path1377"
     inkscape:connector-curvature="0" />
  <path
     style="fill:none;stroke:#000000;stroke-width:1px;stroke-linecap:butt;stroke-linejoin:miter;stroke-opacity:1"
     d="m 496.78572,43.749999 -11.25,-8.75 -18.03572,-7.5 -21.25,-6.785714 -25.89286,-4.107143 -30.71428,-1.25 -38.92857,1.785715 -28.75,4.642857 -27.5,8.571428 -41.07143,16.071429 -26.42857,16.25 L 200,84.285714 176.60714,110.53571 159.64286,136.07143 149.28571,161.25 l -4.10714,20.17857 -1.25,8.92857 -0.17857,9.82143 0.17857,9.82143 1.78572,8.75 3.75,9.10714 3.92857,8.03572 11.42857,13.75 12.14286,7.32143 11.96428,3.92857 12.67857,0.53571 h 11.60715 L 229.64286,258.39286 245,253.21429 266.42857,243.75 l 17.67857,-9.64286 13.57143,-8.75 20.35714,-13.92857 21.78572,-16.60714 8.03571,-7.85714 16.07143,-13.21429 -5.35714,12.14286 -10.17857,18.03571 -14.10715,21.78572 -12.67857,20.17857 -7.14285,9.82143 -1.96429,3.75"
     id="path1379"
     inkscape:connector-curvature="0" />
</svg>
