<?xml version="1.0" encoding="UTF-8" standalone="no"?>
<!-- Created with Inkscape (http://www.inkscape.org/) -->

<svg
   xmlns:dc="http://purl.org/dc/elements/1.1/"
   xmlns:cc="http://creativecommons.org/ns#"
   xmlns:rdf="http://www.w3.org/1999/02/22-rdf-syntax-ns#"
   xmlns:svg="http://www.w3.org/2000/svg"
   xmlns="http://www.w3.org/2000/svg"
   xmlns:sodipodi="http://sodipodi.sourceforge.net/DTD/sodipodi-0.dtd"
   xmlns:inkscape="http://www.inkscape.org/namespaces/inkscape"
   width="900"
   height="300"
   viewBox="0 0 900 300"
   version="1.1"
   id="svg8"
   inkscape:version="0.91 r13725"
   sodipodi:docname="Geoffrey.svg">
  <defs
     id="defs2" />
  <sodipodi:namedview
     id="base"
     pagecolor="#ffffff"
     bordercolor="#666666"
     borderopacity="1.0"
     inkscape:pageopacity="0.0"
     inkscape:pageshadow="2"
     inkscape:zoom="0.70000001"
     inkscape:cx="564.97722"
     inkscape:cy="195.56018"
     inkscape:document-units="mm"
     inkscape:current-layer="svg8"
     showgrid="false"
     inkscape:window-width="1366"
     inkscape:window-height="716"
     inkscape:window-x="0"
     inkscape:window-y="0"
     inkscape:window-maximized="1" />
  <metadata
     id="metadata5">
    <rdf:RDF>
      <cc:Work
         rdf:about="">
        <dc:format>image/svg+xml</dc:format>
        <dc:type
           rdf:resource="http://purl.org/dc/dcmitype/StillImage" />
        <dc:title></dc:title>
      </cc:Work>
    </rdf:RDF>
  </metadata>
  <g
     inkscape:label="Calque 1"
     inkscape:groupmode="layer"
     id="layer1" />
  <path
     style="fill:#000000;fill-opacity:1;stroke:#000000;stroke-width:1.01015258"
     d="m 62.201382,266.61129 c -7.99257,-1.8235 -15.58717,-4.24303 -18.06923,-5.75659 -13.09873,-7.9876 -21.45619,-16.74731 -25.32075,-26.53947 -0.76744,-1.94454 -1.76426,-4.02529 -2.21517,-4.62387 -3.27168,-4.34314 -6.44036,-38.22944 -4.05032,-43.31454 0.53359,-1.13528 1.52217,-5.47341 2.19684,-9.64028 0.67468,-4.16688 1.54877,-8.03072 1.94244,-8.5863 0.39366,-0.55558 1.27089,-3.05571 1.94938,-5.55584 0.6785,-2.50013 1.63529,-5.45482 2.1262,-6.56599 0.49091,-1.11117 2.51355,-5.70978 4.49476,-10.21913 3.26543,-7.43231 6.48415,-13.50591 10.68188,-20.15626 2.6403,-4.18295 9.53738,-13.95377 11.11168,-15.74144 0.83337,-0.94634 1.9698,-2.32562 2.52538,-3.06507 10.93923,-14.559573 32.61576,-34.506246 48.88807,-44.986641 4.779838,-3.078521 9.827048,-6.366564 11.216008,-7.306763 3.95537,-2.677428 29.48472,-15.033545 32.57742,-15.767358 1.52785,-0.362519 2.77791,-1.013827 2.77791,-1.447349 0,-0.433523 1.47735,-1.068555 3.283,-1.411181 1.80565,-0.342627 4.41942,-1.213747 5.80838,-1.935821 1.38896,-0.722076 4.79822,-1.926575 7.57614,-2.676668 2.77792,-0.750092 5.50533,-1.698571 6.06092,-2.10773 0.55558,-0.409159 3.73756,-1.297026 7.07106,-1.973038 3.33351,-0.676012 6.51549,-1.582345 7.07107,-2.014075 0.55559,-0.431729 4.41942,-1.317574 8.5863,-1.968544 4.16688,-0.650971 10.30356,-1.816659 13.63706,-2.590419 3.3335,-0.773759 16.74328,-2.323803 29.7995,-3.444541 22.29141,-1.913481 24.93943,-1.947797 43.43656,-0.562898 10.83388,0.811144 21.74353,1.736045 24.24366,2.055336 6.14903,0.78529 27.53061,5.581547 28.78935,6.457949 0.55558,0.386825 3.05571,1.258451 5.55584,1.936946 5.0994,1.383897 5.26806,1.453452 17.17259,7.081739 10.43559,4.933797 16.3969,9.613883 15.96461,12.53346 -0.47424,3.202937 -2.11347,3.066544 -5.73836,-0.477464 -1.82609,-1.785345 -4.30583,-3.810606 -5.51053,-4.500579 -5.72672,-3.279923 -15.1622,-7.555341 -17.86848,-8.096597 -1.65533,-0.331065 -3.00968,-0.937569 -3.00968,-1.347789 0,-0.410219 -2.72741,-1.324649 -6.06092,-2.032066 -3.3335,-0.707418 -6.06091,-1.614367 -6.06091,-2.015442 0,-0.401075 -3.52291,-1.287511 -7.82868,-1.969857 -4.30578,-0.682346 -8.73782,-1.637509 -9.84899,-2.122586 -8.94793,-3.906191 -84.02079,-3.903291 -92.93404,0.0036 -1.11116,0.487051 -5.65685,1.424478 -10.10152,2.083171 -4.44467,0.658692 -8.53579,1.540443 -9.09137,1.959447 -0.55559,0.419002 -3.91369,1.316742 -7.46246,1.994976 -3.54875,0.678234 -7.1853,1.644435 -8.08122,2.147111 -0.8959,0.502677 -4.12904,1.579064 -7.18476,2.391972 -8.17312,2.174287 -24.094,7.689914 -30.80965,10.673688 -1.11117,0.493694 -5.26809,2.283489 -9.23759,3.977321 -7.85515,3.351879 -21.8733,11.105175 -22.41386,12.396877 -0.18519,0.44254 -0.84981,0.804617 -1.47693,0.804617 -0.62712,0 -4.56671,2.34812 -8.754658,5.218043 -18.08563,12.393772 -32.09314,25.400586 -47.1422,43.774353 -5.12713,6.25983 -14.51539,20.20241 -14.51539,21.5569 0,0.55174 -0.40738,1.15469 -0.90529,1.33989 -1.1773,0.43789 -11.21655,21.40007 -11.21655,23.42042 0,0.85019 -0.41959,1.80512 -0.93243,2.12208 -0.51284,0.31695 -1.25292,2.0484 -1.64461,3.84769 -0.3917,1.79927 -1.54445,5.88603 -2.56167,9.08168 -2.65124,8.32903 -4.0526,26.83527 -2.89921,38.28685 0.90675,9.00283 5.45412,24.08817 7.26121,24.08817 0.42719,0 0.77671,0.66523 0.77671,1.47827 0,1.74284 11.34315,14.12062 14.61454,15.94757 13.57332,7.58021 18.58874,8.83813 35.23826,8.83813 10.70157,0 23.31191,-1.4882 25.403568,-2.99798 0.55558,-0.40102 3.28299,-1.32957 6.06091,-2.06344 2.77792,-0.73387 5.94741,-1.94083 7.0433,-2.68213 1.09589,-0.74131 2.60139,-1.34782 3.34555,-1.34782 1.74787,0 8.85876,-3.25824 27.26638,-12.49356 2.06857,-1.03782 3.98831,-2.20005 4.26611,-2.58273 0.27779,-0.38267 1.98242,-1.29333 3.78807,-2.02367 1.80564,-0.73034 3.28299,-1.67216 3.28299,-2.09294 0,-0.42078 1.36371,-1.32992 3.03046,-2.02031 1.66675,-0.69039 3.03046,-1.65468 3.03046,-2.14285 0,-0.48818 0.4939,-0.8876 1.09755,-0.8876 0.89856,0 6.05016,-3.28365 11.50549,-7.33364 0.56871,-0.42221 5.5797,-4.02022 11.13554,-7.99556 16.44437,-11.76638 36.77132,-28.37231 48.31634,-39.47158 5.15131,-4.95243 7.40501,-5.85502 8.36607,-3.35053 0.47772,1.24494 -3.89245,10.22229 -5.68791,11.68429 -0.34116,0.27779 -2.09331,3.0052 -3.89367,6.06091 -1.80036,3.05572 -4.58571,7.6014 -6.18965,10.10153 -1.60394,2.50013 -4.39379,7.04581 -6.19967,10.10152 -1.80587,3.05572 -4.78626,7.71038 -6.62308,10.3437 -1.83684,2.63333 -3.33969,5.00404 -3.33969,5.26823 0,0.2642 -1.36299,2.65534 -3.02885,5.31366 -3.25486,5.19396 -3.68061,5.85274 -7.55923,11.6967 -1.39915,2.1081 -2.5439,4.01984 -2.5439,4.24828 0,0.22845 -1.02278,1.95519 -2.27285,3.83721 -1.25006,1.88202 -3.40926,5.29925 -4.79822,7.59383 -2.4031,3.96998 -5.23309,5.37287 -6.54766,3.24584 -0.73364,-1.18707 1.56083,-5.77526 6.161,-12.31998 1.87942,-2.67385 3.41712,-5.10817 3.41712,-5.40958 0,-0.53202 7.43021,-12.33907 11.2438,-17.86708 1.0385,-1.50536 1.88818,-2.96252 1.88818,-3.23814 0,-0.27561 1.14476,-2.22594 2.54391,-4.33405 4.19323,-6.31801 4.35071,-6.5629 9.58397,-14.90327 6.72833,-10.72312 6.76117,-13.65925 0.0862,-7.69978 -1.8162,1.6215 -4.70651,4.00798 -6.42292,5.3033 -1.71642,1.29533 -4.28979,3.30729 -5.71861,4.47103 -3.14024,2.55764 -19.11737,14.45386 -22.25681,16.57194 -1.23525,0.83337 -4.92417,3.44714 -8.19761,5.80837 -3.27344,2.36123 -6.21648,4.29315 -6.5401,4.29315 -0.32363,0 -2.03542,1.02392 -3.804,2.27538 -3.80909,2.69535 -4.67653,3.21959 -15.8425,9.57447 -8.3771,4.76765 -15.02295,8.09807 -24.24366,12.14915 -2.50013,1.09842 -6.20538,2.73925 -8.23389,3.64628 -2.02851,0.90703 -4.30135,1.65194 -5.05076,1.65537 -0.74941,0.003 -2.72242,0.71528 -4.38447,1.58191 -2.8434,1.4826 -10.345128,3.4699 -20.716678,5.4881 -5.56906,1.0837 -20.44271,1.06367 -25.25381,-0.0339 z"
     id="G1"
     inkscape:connector-curvature="0" />
  <path
     style="fill:#000000;fill-opacity:1;stroke:#000000;stroke-width:1.01015258"
     d="m 250.91527,214.66386 c -4.77979,-0.84674 -9.4407,-4.26364 -11.02139,-8.07975 -2.16908,-5.23663 -0.85877,-16.85996 2.56763,-22.77655 5.6957,-9.83516 14.68264,-17.91614 26.21976,-23.57661 6.88986,-3.38037 20.77041,-3.72757 24.93221,-0.62363 5.8661,4.37503 6.61158,11.73736 1.68712,16.66182 -4.12342,4.12343 -13.90717,8.67338 -21.56856,10.03052 -6.89547,1.22145 -16.48637,0.0795 -20.29589,-2.41661 -3.55517,-2.32945 -4.19115,-1.99657 -7.08099,3.70627 -2.96428,5.84971 -3.62258,13.34522 -1.51751,17.27857 1.55526,2.90605 8.48379,6.16633 11.53991,5.43021 9.90827,-2.38658 13.97009,-3.59141 15.06669,-4.46912 0.70271,-0.56243 2.41406,-1.36716 3.80301,-1.78827 7.8632,-2.38401 27.19181,-15.24682 37.54874,-24.98795 4.00263,-3.76464 7.17657,-4.77885 8.45942,-2.70314 0.36879,0.59671 -0.39988,2.25 -1.70815,3.67399 -3.09838,3.37242 -19.8295,16.75154 -23.0868,18.46147 -1.38896,0.72914 -2.75267,1.61378 -3.03046,1.96587 -0.98367,1.24674 -18.77569,9.81925 -24.74874,11.92438 -7.01443,2.47216 -12.63928,3.19672 -17.766,2.28853 z m 25.7525,-34.3547 c 0.55212,-0.55213 1.75439,-1.00387 2.67168,-1.00387 2.25929,0 11.26102,-4.79037 12.82787,-6.82649 3.53613,-4.5952 -1.40401,-10.36178 -8.83882,-10.31748 -7.18158,0.0428 -18.71924,5.12269 -25.72797,11.32775 -3.33655,2.95395 -3.79569,5.81622 -0.93301,5.81622 0.77394,0 1.40715,0.42438 1.40715,0.94306 0,2.13097 16.46907,2.18484 18.5931,0.0608 z"
     id="e1"
     inkscape:connector-curvature="0" />
  <path
     style="fill:#000000;fill-opacity:1;stroke:#000000;stroke-width:1.42857146"
     d="m 316.36819,215.13677 c -8.6571,-3.76244 -9.69119,-13.6762 -3.18606,-30.54456 3.17428,-8.23118 6.43798,-13.51737 12.44167,-20.15166 9.07772,-10.03121 14.37911,-12.88368 23.94465,-12.88368 13.35412,0 21.56359,14.13775 15.97551,27.51189 -3.11721,7.46054 -0.75696,7.99829 8.40513,1.915 8.40726,-5.5821 10.64426,-6.23707 10.64426,-3.11652 0,2.40876 -15.93417,13.35679 -21.26694,14.61206 -2.05318,0.4833 -8.05543,5.2287 -13.33833,10.54534 -12.95332,13.03604 -23.0907,16.68821 -33.61989,12.11213 z m 17.19962,-5.55245 c 4.54773,-1.95142 13.88269,-10.22156 13.88269,-12.29912 0,-0.59153 -5.08866,-1.37009 -11.30813,-1.73013 -7.51199,-0.43486 -12.60781,-1.5062 -15.17971,-3.19137 -3.1815,-2.0846 -4.09028,-2.19161 -5.09857,-0.60036 -2.11823,3.34292 -1.46504,15.10943 0.97416,17.54864 2.77204,2.77203 10.60687,2.89958 16.72956,0.27234 z m 17.7598,-18.9144 c 4.08317,-1.09467 10.4086,-13.63145 10.4086,-20.62945 0,-9.87216 -7.75598,-15.37607 -17.77088,-12.61083 -4.69296,1.29579 -16.51483,10.4656 -16.51483,12.80998 0,0.72449 3.48313,1.31725 7.7403,1.31725 9.114,0 12.2597,0.97381 12.2597,3.79521 0,1.66218 -1.5894,1.88477 -8.21429,1.15042 -7.16761,-0.79451 -8.85139,-0.47775 -13.21428,2.48597 -6.31858,4.29221 -6.31858,6.9097 0,10.06618 4.99093,2.49326 18.75397,3.37176 25.30568,1.61527 z"
     id="o1"
     inkscape:connector-curvature="0" />
  <path
     style="fill:#000000;fill-opacity:1;stroke:#000000;stroke-width:1.42857146"
     d="m 327.50064,267.08367 c -0.78961,-1.27761 13.65187,-24.42131 29.58061,-47.40546 17.75545,-25.61995 20.97138,-31.28629 20.97138,-36.95076 0,-5.17433 0.37266,-5.75948 3.92857,-6.16863 2.90727,-0.33452 5.13707,-2.30895 8.57723,-7.59489 2.55677,-3.92857 7.93378,-11.96428 11.94891,-17.85714 4.01514,-5.89285 18.84369,-28.23214 32.95232,-49.64286 22.5225,-34.179255 29.73582,-43.236905 29.73582,-37.338815 0,1.64814 -11.98474,20.13401 -49.47324,76.309995 -12.07543,18.09485 -21.95533,33.75902 -21.95533,34.80927 0,1.50233 2.05633,1.69955 9.64286,0.92482 14.8902,-1.52058 25.68606,-4.73366 38.89316,-11.57542 7.4865,-3.87828 12.61581,-5.76372 13.43945,-4.94009 2.23917,2.23916 -1.22435,4.90806 -14.64779,11.28721 -12.45766,5.92018 -21.63615,8.08103 -46.06276,10.84433 -6.72151,0.76038 -8.2843,1.48567 -9.6474,4.47736 -0.89463,1.96349 -1.24661,5.94631 -0.78218,8.85071 1.19347,7.46353 -1.59818,25.57026 -5.79388,37.57926 -3.80953,10.90371 -11.28673,21.31235 -18.48069,25.72604 -10.54325,6.46857 -30.86872,11.83371 -32.82704,8.66507 z m 26.4632,-11.08144 c 9.76065,-4.93907 16.38591,-13.51616 20.4999,-26.53923 3.88495,-12.29807 6.24369,-29.78479 4.01758,-29.78479 -1.51682,0 -41.85727,59.04993 -41.85727,61.27025 0,1.83755 9.01624,-0.73436 17.33979,-4.94623 z"
     id="f1"
     inkscape:connector-curvature="0" />
  <path
     style="fill:#000000;fill-opacity:1;stroke:#000000;stroke-width:1.42857146"
     d="m 387.59753,265.41855 c -0.78961,-1.27761 13.65187,-24.42131 29.58061,-47.40546 17.75545,-25.61995 20.97138,-31.28629 20.97138,-36.95076 0,-5.17433 0.37266,-5.75948 3.92857,-6.16863 2.90727,-0.33452 5.13707,-2.30895 8.57723,-7.59489 2.55677,-3.92857 7.93378,-11.96428 11.94891,-17.85714 4.01514,-5.89285 18.84369,-28.23214 32.95232,-49.642856 22.5225,-34.179255 29.73582,-43.236905 29.73582,-37.338815 0,1.64814 -11.98474,20.13401 -49.47324,76.309991 -12.07543,18.09485 -21.95533,33.75902 -21.95533,34.80927 0,1.50233 2.05633,1.69955 9.64286,0.92482 14.8902,-1.52058 25.68606,-4.73366 38.89316,-11.57542 7.4865,-3.87828 12.61581,-5.76372 13.43945,-4.94009 2.23917,2.23916 -1.22435,4.90806 -14.64779,11.28721 -12.45766,5.92018 -21.63615,8.08103 -46.06276,10.84433 -6.72151,0.76038 -8.2843,1.48567 -9.6474,4.47736 -0.89463,1.96349 -1.24661,5.94631 -0.78218,8.85071 1.19347,7.46353 -1.59818,25.57026 -5.79388,37.57926 -3.80953,10.90371 -11.28673,21.31235 -18.48069,25.72604 -10.54325,6.46857 -30.86872,11.83371 -32.82704,8.66507 z m 26.4632,-11.08144 c 9.76065,-4.93907 16.38591,-13.51616 20.4999,-26.53923 3.88495,-12.29807 6.24369,-29.78479 4.01758,-29.78479 -1.51682,0 -41.85727,59.04993 -41.85727,61.27025 0,1.83755 9.01624,-0.73436 17.33979,-4.94623 z"
     id="f2"
     inkscape:connector-curvature="0" />
  <path
     style="fill:#000000;fill-opacity:1;stroke:#000000;stroke-width:1.01015258"
     d="m 481.20735,213.05998 c -0.69235,-1.80422 7.9e-4,-3.26214 6.21268,-13.06756 2.4638,-3.88909 6.1164,-9.79848 8.11689,-13.13198 2.00049,-3.33351 4.91204,-8.10648 6.47011,-10.60661 1.55807,-2.50012 4.63153,-7.47176 6.8299,-11.04807 4.41726,-7.186 6.70172,-9.23235 8.40507,-7.529 1.28653,1.28654 0.29523,3.87149 -4.02507,10.49585 -5.73998,8.80117 -10.35224,17.28388 -9.73388,17.90223 0.67876,0.67876 2.67526,-0.97145 12.72382,-10.51687 17.13188,-16.27406 19.2241,-17.45866 22.83568,-12.9293 1.60953,2.01854 2.30243,4.69851 2.76472,10.69333 0.33929,4.39985 1.10138,8.905 1.69354,10.01146 2.11851,3.95847 11.66913,1.83156 20.14219,-4.48563 6.11328,-4.55784 11.51499,-2.2262 5.86466,2.53147 -3.87585,3.26353 -14.90596,8.25613 -19.29958,8.73564 -8.84465,0.96528 -11.99823,-2.51008 -13.90386,-15.32258 -0.62414,-4.19644 -1.49924,-7.6299 -1.94465,-7.6299 -1.84869,0 -12.92735,10.19398 -37.05136,34.09265 -7.4309,7.36149 -13.95712,13.38452 -14.50271,13.38452 -0.54559,0 -1.26476,-0.71084 -1.59815,-1.57965 z"
     id="r1"
     inkscape:connector-curvature="0" />
  <path
     style="fill:#000000;fill-opacity:1;stroke:#000000;stroke-width:1.01015258"
     d="m 568.343,217.68337 c -4.77979,-0.84674 -9.4407,-4.26364 -11.02139,-8.07975 -2.16908,-5.23663 -0.85877,-16.85996 2.56763,-22.77655 5.6957,-9.83516 14.68264,-17.91614 26.21976,-23.57661 6.88986,-3.38037 20.77041,-3.72757 24.93221,-0.62363 5.8661,4.37503 6.61158,11.73736 1.68712,16.66182 -4.12342,4.12343 -13.90717,8.67338 -21.56856,10.03052 -6.89547,1.22145 -16.48637,0.0795 -20.29589,-2.41661 -3.55517,-2.32945 -4.19115,-1.99657 -7.08099,3.70627 -2.96428,5.84971 -3.62258,13.34522 -1.51751,17.27857 1.55526,2.90605 8.48379,6.16633 11.53991,5.43021 9.90827,-2.38658 13.97009,-3.59141 15.06669,-4.46912 0.70271,-0.56243 2.41406,-1.36716 3.80301,-1.78827 7.8632,-2.38401 27.19181,-15.24682 37.54874,-24.98795 4.00263,-3.76464 7.17657,-4.77885 8.45942,-2.70314 0.36879,0.59671 -0.39988,2.25 -1.70815,3.67399 -3.09838,3.37242 -19.8295,16.75154 -23.0868,18.46147 -1.38896,0.72914 -2.75267,1.61378 -3.03046,1.96587 -0.98367,1.24674 -18.77569,9.81925 -24.74874,11.92438 -7.01443,2.47216 -12.63928,3.19672 -17.766,2.28853 z m 25.7525,-34.3547 c 0.55212,-0.55213 1.75439,-1.00387 2.67168,-1.00387 2.25929,0 11.26102,-4.79037 12.82787,-6.82649 3.53613,-4.5952 -1.40401,-10.36178 -8.83882,-10.31748 -7.18158,0.0428 -18.71924,5.12269 -25.72797,11.32775 -3.33655,2.95395 -3.79569,5.81622 -0.93301,5.81622 0.77394,0 1.40715,0.42438 1.40715,0.94306 0,2.13097 16.46907,2.18484 18.5931,0.0608 z"
     id="e2"
     inkscape:connector-curvature="0" />
  <path
     style="fill:#000000;fill-opacity:1;stroke:#000000;stroke-width:1.42857146"
     d="m 597.55094,297.21215 c -9.68649,-1.63302 -20.89031,-8.20962 -25.27609,-14.83697 -5.50429,-8.31754 -5.25327,-18.64862 0.63326,-26.06269 2.39728,-3.01936 7.53214,-7.07798 11.41081,-9.01915 6.45865,-3.2324 9.15549,-3.59306 32.04641,-4.28572 l 24.99429,-0.7563 12.21368,-20 c 6.71752,-11 13.93179,-22.5181 16.03172,-25.59579 6.1175,-8.96588 2.70367,-9.21254 -5.50136,-0.39748 -8.172,8.77957 -23.62281,19.5647 -28.02845,19.5647 -1.51006,0 -4.70749,-1.96193 -7.1054,-4.35984 -3.95973,-3.95973 -4.27858,-4.95266 -3.47444,-10.81952 1.90506,-13.89895 22.46029,-46.5339 26.70815,-42.40375 1.37401,1.33594 0.51637,3.18185 -3.98243,8.57143 -16.97106,20.3314 -22.90165,43.31344 -11.17166,43.29205 7.16249,-0.0131 20.80387,-12.68638 45.35622,-42.13751 7.41753,-8.89752 12.93253,-14.28572 14.62187,-14.28572 5.86941,0 6.39649,-0.99029 -28.13329,52.85714 -17.223,26.85841 -21.05908,33.05691 -21.05908,34.02817 0,0.53451 35.40428,0.97183 78.67617,0.97183 74.16067,0 78.64856,0.14349 78.19488,2.5 -0.45061,2.34058 -5.63214,2.52352 -81.25572,2.86882 l -80.77443,0.36882 -6.07827,10.34547 c -14.85519,25.28415 -23.07144,37.61499 -26.15495,39.25298 -3.66354,1.9461 -3.40037,1.93917 -12.89189,0.33903 z m 15.9806,-11.74654 c 1.85096,-3.33929 7.43362,-12.10581 12.40592,-19.48115 4.9723,-7.37535 9.04054,-14.33131 9.04054,-15.45771 0,-1.70874 -3.6087,-1.97216 -21.78571,-1.59028 -24.76842,0.52037 -30.57174,2.29492 -36.53587,11.17199 -2.68503,3.99645 -3.21796,6.29029 -2.65516,11.42857 0.57806,5.27756 1.73866,7.34703 6.48211,11.55824 6.7488,5.99155 12.43796,8.09424 22.44586,8.29592 7.08528,0.14279 7.30747,0.0186 10.60231,-5.92558 z"
     id="y1"
     inkscape:connector-curvature="0" />
  <path
     style="fill:none;stroke:#000000;stroke-width:1px;stroke-linecap:butt;stroke-linejoin:miter;stroke-opacity:1"
     d="m 367.75593,46.678931 -11.25,-8.75 -18.03572,-7.5 -21.25,-6.785714 -25.89286,-4.107143 -30.71428,-1.25 -38.92857,1.785715 -28.75,4.642857 -27.5,8.571428 -41.07143,16.071429 -26.428568,16.25 -26.96429,21.607143 -23.39286,26.249994 -16.96428,25.53572 -10.35715,25.17857 -4.10714,20.17857 -1.25,8.92857 -0.17857,9.82143 0.17857,9.82143 1.78572,8.75 3.75,9.10714 3.92857,8.03572 11.42857,13.75 12.14286,7.32143 11.96428,3.92857 12.67857,0.53571 11.60715,0 16.428568,-3.03571 15.35714,-5.17857 21.42857,-9.46429 17.67857,-9.64286 13.57143,-8.75 20.35714,-13.92857 21.78572,-16.60714 8.03571,-7.85714 16.07143,-13.21429 -5.35714,12.14286 -10.17857,18.03571 -14.10715,21.78572 -12.67857,20.17857 -7.14285,9.82143 -1.96429,3.75"
     id="pathG1"
     inkscape:connector-curvature="0" />
  <path
     style="fill:none;stroke:#000000;stroke-width:1px;stroke-linecap:butt;stroke-linejoin:miter;stroke-opacity:1"
     d="m 249.28572,178.66071 4.19643,2.76786 3.92857,1.69643 9.01786,1.16071 9.91071,-1.07142 5.625,-1.69643 6.69643,-3.21429 7.5,-6.16071 -0.80357,-4.91072 -1.16072,-4.01785 -6.25,-3.30358 -11.60714,0.26786 -6.07143,1.42857 -5.08928,3.30357 -11.16072,7.67858 -2.05357,2.94642 -5.53571,6.78572 -2.5,3.92857 -1.07143,3.83929 -0.98215,3.92857 -0.26785,3.39285 -0.17857,3.57143 0,3.21429 2.14285,3.57143 1.51786,2.05357 6.25,2.5 9.28571,0 10.625,-3.92857 14.375,-5.71429 6.25,-4.64286 9.73215,-6.875 5.625,-4.28571 7.67857,-6.16071 7.5,-5.71429"
     id="pathe1"
     inkscape:connector-curvature="0" />
  <path
     style="fill:none;stroke:#000000;stroke-width:1px;stroke-linecap:butt;stroke-linejoin:miter;stroke-opacity:1"
     d="m 314.45577,181.81853 13.75852,-17.53282 6.78571,-5.89285 9.82143,-4.46429 5.71429,-0.17857 5,1.60714 5.53571,4.10715 L 363.75,165 l 0.89286,7.5 -3.39286,10.17857 -7.5,13.03572 -7.14286,7.85714 -9.21619,7.21947 -3.40926,1.57837 -4.10375,1.35739 -3.59867,0.63134 -3.72493,-0.0316 -5.87152,-2.11501 -2.74635,-2.74635 -2.24127,-4.60882 -0.0947,-5.36644 2.43068,-10.73287 5.17703,-8.08122 6.18719,-5.05076 4.04061,-1.51523 5.68211,-0.37881 9.47018,-0.25254 -14.77348,-0.12627 -5.05077,3.283 -3.03045,3.40927 -3.15673,3.78807 -0.12627,2.52538 2.39911,2.90419 3.283,2.14657 6.18718,1.38896 9.72272,1.13642 7.82868,-0.50507 13.25826,-3.15673 7.82868,-2.77792 4.67195,-2.77792 7.19734,-5.80838 2.90419,-1.38896 1.89403,-2.14657"
     id="patho1"
     inkscape:connector-curvature="0"
     sodipodi:nodetypes="ccccccccccccccccccccccccccccccccccccccccccc" />
  <path
     style="fill:none;stroke:#000000;stroke-width:1px;stroke-linecap:butt;stroke-linejoin:miter;stroke-opacity:1"
     d="M 374.86039,180.80608 382.67857,180 l 2.34778,-3.59711 9.88437,-10.77789 10.53571,-16.16071 10.26786,-15.08929 14.375,-21.42857 16.78571,-25.892859 13.30357,-18.839286 2.94643,-3.482143 -8.03571,11.25 -5.08929,7.410715 -15.53571,23.839283 -6.16072,9.375 -5.44643,7.94643 -6.25,8.92857 -23.66071,36.07143 -1.875,3.03572 -1.96429,3.48214 -10.53571,13.03571 -11.42857,18.92857 -4.55357,7.5 -22.5,33.92858 -7.14286,13.30357 -1.69643,2.67857 1.07143,0 4.28571,-0.17857 10.80358,-3.75 6.07142,-2.5 6.33929,-3.48215 6.51786,-5.98214 5.17857,-7.32143 3.66071,-7.41071 5,-15.44643 1.96429,-12.58929 -0.44643,-15 -0.44643,-5.89285 -0.625,-3.39286 8.30357,-1.60714 6.25,-1.51786 14.375,-1.69643 16.33929,-3.75 16.16071,-5.98214 8.60114,-6.01015 7.11315,-2.91842"
     id="pathf1"
     inkscape:connector-curvature="0"
     sodipodi:nodetypes="ccccccccccccccccccccccccccccccccccccccccccccc" />
  <path
     style="fill:none;stroke:#000000;stroke-width:1px;stroke-linecap:butt;stroke-linejoin:miter;stroke-opacity:1"
     d="m 451.69643,162.94643 9.46429,-5.71429 9.55357,-15.71428 5.71428,-9.46429 12.05357,-17.76786 5,-7.41071 9.28572,-14.553572 8.92857,-12.589286 6.42857,-9.821428 3.92857,-5.892857 -9.46428,15.446428 -11.33929,15.982143 -17.32143,26.785712 -16.78571,25.80357 -9.46429,14.73215 -17.05357,23.75 -13.21428,21.875 -17.23215,24.375 -15.08928,23.21428 -2.85715,5.89286 0.625,1.78571 3.92858,-1.16071 8.21428,-1.25 15.44643,-8.30357 6.69643,-6.96429 6.96428,-11.78571 4.64286,-14.91072 4.46429,-20.89285 -2.23215,-20.98215 7.23215,-0.17857 7.32143,0 6.875,-0.44643 11.16071,-1.25 7.05357,-1.69642 7.67857,-2.32143 10.80357,-4.19643 8.75,-4.19643 5.625,-2.94643 4.01786,-2.58928"
     id="pathf2"
     inkscape:connector-curvature="0" />
  <path
     style="fill:none;stroke:#000000;stroke-width:1px;stroke-linecap:butt;stroke-linejoin:miter;stroke-opacity:1"
     d="m 508.35927,162.49298 5.12287,-2.31441 -3.60764,8.24906 -5.55584,10.35406 -8.71257,14.26841 -7.19733,10.6066 -4.54569,6.31345 16.92006,-15.65736 15.40482,-15.9099 10.2278,-9.47018 5.17703,-4.29315 2.65165,-1.26269 2.27284,0.50507 1.38896,4.04061 1.26269,8.08122 0.88389,5.17704 1.89403,4.16688 2.77792,2.39911 4.04061,0.37881 6.18719,-1.38896 5.6821,-2.77792 5.17704,-3.40927 6.81853,-4.67195"
     id="pathr1"
     inkscape:connector-curvature="0" />
  <path
     style="fill:none;stroke:#000000;stroke-width:1px;stroke-linecap:butt;stroke-linejoin:miter;stroke-opacity:1"
     d="m 562.67857,180.80357 3.21429,-1.07143 5.08928,4.28572 5.71429,2.67857 8.03571,1.16071 6.25,-1.16071 9.82143,-3.48214 7.14286,-2.94643 4.82143,-5.35715 0.98214,-2.58928 -1.07143,-3.92857 -1.25,-2.67857 -3.75,-2.32143 -7.67857,-1.16072 -6.42857,0.98215 -10.80357,3.21428 -6.96429,5.625 -10,9.55357 -4.375,5.89286 -2.23214,6.60714 -0.80357,11.51786 0.625,3.03571 2.05357,2.32143 3.48214,3.125 4.19643,1.60715 5.98214,0.17857 12.14286,-2.85715 6.33929,-3.03571 9.91071,-4.55357 5.17857,-3.92857 8.21429,-5 5.71428,-4.28572 7.05358,-6.33928 6.16071,-5 4.375,-3.75"
     id="pathe2"
     inkscape:connector-curvature="0" />
  <path
     style="fill:none;stroke:#000000;stroke-width:1px;stroke-linecap:butt;stroke-linejoin:miter;stroke-opacity:1"
     d="m 627.23214,187.94643 6.25,-5.44643 3.66072,-5.80357 5.98214,-9.10714 5.80357,-6.78572 1.51786,-1.25 -8.57143,10.625 -5,8.03572 -5.625,11.42857 -2.41071,6.60714 -0.71429,4.10714 -0.26786,4.28572 1.07143,3.03571 2.32143,2.67857 2.23214,2.14286 3.57143,0.89286 5.35715,-2.41072 6.51785,-4.64285 6.875,-6.51786 10.26786,-9.375 7.67857,-7.41072 12.85714,-14.19642 6.51786,-8.125 -5.625,10.53571 -11.25,19.73214 -4.64286,6.96429 L 658.48214,218.75 640,247.5 l -8.83928,14.01786 -14.10715,23.03571 -5.08928,8.125 -4.73215,2.05357 -12.5,-0.89285 -4.64285,-1.25 -7.32143,-3.57143 -8.30357,-7.32143 -3.30357,-10 0.44642,-7.23214 2.67858,-7.14286 4.28571,-3.75 5.89286,-3.39286 7.23214,-2.58928 9.28571,-1.07143 11.42858,-0.89286 17.58928,-0.80357 12.67857,-0.26786 21.78572,-0.26786 16.33928,-0.26785 23.57143,0 51.51786,-0.0893 33.83928,0.26786 12.94643,0.17857 4.91072,0"
     id="pathy1"
     inkscape:connector-curvature="0" />
</svg>
